<svg width="773" height="532" viewBox="0 0 773 532" fill="none" xmlns="http://www.w3.org/2000/svg">
<g clip-path="url(#clip0_22_207)">
<path d="M106.069 528.4C75.3337 520.401 48.1741 502.313 28.9441 477.038C9.71399 451.762 -0.472906 420.762 0.0163471 389.006C0.138247 381.094 0.970122 373.016 4.2961 365.836C7.62208 358.656 13.8 352.446 21.528 350.745C29.9618 348.888 38.8614 352.683 45.1467 358.606C51.4319 364.528 55.553 372.342 59.3447 380.101C82.1825 426.835 99.5342 476.98 106.031 528.589L106.069 528.4Z" fill="#F2F2F2"/>
<path d="M17.7017 352.304L33.7077 388.671L49.7137 425.038C54.7828 436.556 59.8423 448.078 65.0818 459.52C70.2753 470.86 75.6468 482.123 81.3771 493.204C87.0993 504.268 93.1809 515.153 99.7821 525.719C100.604 527.035 101.434 528.345 102.273 529.651C102.853 530.555 104.303 529.716 103.719 528.806C96.9906 518.318 90.7913 507.5 84.9769 496.482C79.1563 485.451 73.716 474.224 68.4767 462.907C63.2094 451.53 58.1447 440.061 53.0935 428.586C47.7765 416.509 42.4605 404.43 37.1455 392.351L21.1394 355.984L19.1475 351.459C18.7144 350.475 17.2712 351.326 17.7017 352.304Z" fill="white"/>
<path d="M99.392 528.653C81.2751 532.797 62.2915 530.739 45.484 522.807C28.6766 514.876 15.0188 501.531 6.69999 484.912C4.62732 480.771 2.87846 476.353 2.66691 471.727C2.45536 467.102 3.98636 462.21 7.53928 459.24C11.4168 455.999 17.0619 455.567 21.9239 456.945C26.7859 458.323 31.0349 461.267 35.0981 464.272C59.5715 482.37 82.1177 503.721 99.4229 528.761L99.392 528.653Z" fill="#F2F2F2"/>
<path d="M5.97377 461.083L24.1016 475.643L42.2294 490.203C47.9706 494.814 53.708 499.431 59.517 503.956C65.275 508.442 71.1043 512.839 77.0707 517.045C83.0287 521.245 89.1244 525.254 95.4042 528.958C96.1862 529.419 96.971 529.876 97.7586 530.327C98.3039 530.64 98.8303 529.813 98.2812 529.498C91.9569 525.869 85.8179 521.926 79.8246 517.775C73.8248 513.62 67.9695 509.26 62.1942 504.799C56.3881 500.314 50.6623 495.726 44.9421 491.133C38.921 486.297 32.9004 481.462 26.8801 476.625L8.75222 462.065L6.49631 460.254C6.00573 459.86 5.48621 460.691 5.97377 461.083Z" fill="white"/>
<path d="M765.909 0H278.909C277.054 0.00205925 275.274 0.740227 273.962 2.05254C272.65 3.36484 271.911 5.14412 271.909 7V337C271.911 338.856 272.65 340.635 273.962 341.947C275.274 343.26 277.054 343.998 278.909 344H765.909C767.765 343.998 769.545 343.26 770.857 341.947C772.169 340.635 772.907 338.856 772.909 337V7C772.907 5.14412 772.169 3.36484 770.857 2.05254C769.545 0.740227 767.765 0.00205925 765.909 0ZM770.909 337C770.909 338.326 770.382 339.597 769.444 340.535C768.507 341.472 767.235 341.999 765.909 342H278.909C277.584 341.999 276.312 341.472 275.374 340.535C274.437 339.597 273.91 338.326 273.909 337V7C273.91 5.67408 274.437 4.40262 275.374 3.46506C276.312 2.52749 277.584 2.00053 278.909 2H765.909C767.235 2.00053 768.507 2.52749 769.444 3.46506C770.382 4.40262 770.909 5.67408 770.909 7V337Z" fill="#3F3D56"/>
<path d="M771.909 28.04H272.909V30.04H771.909V28.04Z" fill="#3F3D56"/>
<path d="M289.909 21C293.223 21 295.909 18.3137 295.909 15C295.909 11.6863 293.223 9 289.909 9C286.596 9 283.909 11.6863 283.909 15C283.909 18.3137 286.596 21 289.909 21Z" fill="#3F3D56"/>
<path d="M307.159 21C310.473 21 313.159 18.3137 313.159 15C313.159 11.6863 310.473 9 307.159 9C303.846 9 301.159 11.6863 301.159 15C301.159 18.3137 303.846 21 307.159 21Z" fill="#3F3D56"/>
<path d="M324.409 21C327.723 21 330.409 18.3137 330.409 15C330.409 11.6863 327.723 9 324.409 9C321.096 9 318.409 11.6863 318.409 15C318.409 18.3137 321.096 21 324.409 21Z" fill="#3F3D56"/>
<path d="M394.778 74.5H310.778C308.921 74.5 307.141 73.7625 305.828 72.4498C304.515 71.137 303.778 69.3565 303.778 67.5C303.778 65.6435 304.515 63.863 305.828 62.5503C307.141 61.2375 308.921 60.5 310.778 60.5H394.778C396.634 60.5 398.415 61.2375 399.727 62.5503C401.04 63.863 401.778 65.6435 401.778 67.5C401.778 69.3565 401.04 71.137 399.727 72.4498C398.415 73.7625 396.634 74.5 394.778 74.5Z" fill="#CCCCCC"/>
<path d="M509.778 108.5H310.778C308.921 108.5 307.141 107.762 305.828 106.45C304.515 105.137 303.778 103.357 303.778 101.5C303.778 99.6435 304.515 97.863 305.828 96.5502C307.141 95.2375 308.921 94.5 310.778 94.5H509.778C511.634 94.5 513.415 95.2375 514.727 96.5502C516.04 97.863 516.778 99.6435 516.778 101.5C516.778 103.357 516.04 105.137 514.727 106.45C513.415 107.762 511.634 108.5 509.778 108.5Z" fill="#CCCCCC"/>
<path d="M573.997 122.023C564.623 135.69 559.159 151.658 558.195 168.203C557.231 184.748 560.804 201.242 568.527 215.906C576.251 230.569 587.832 242.845 602.021 251.409C616.21 259.973 632.468 264.499 649.041 264.5V185.06L573.997 122.023Z" fill="black"/>
<path d="M649.041 82.5C634.262 82.4906 619.703 86.0851 606.627 92.972C593.55 99.859 582.35 109.831 573.997 122.023L649.041 185.06V82.5Z" fill="#CCCCCC"/>
<path d="M649.041 265.5H648.041V81.5H649.041C673.441 81.5 696.842 91.1928 714.095 108.446C731.348 125.7 741.041 149.1 741.041 173.5C741.041 197.9 731.348 221.3 714.095 238.554C696.842 255.807 673.441 265.5 649.041 265.5ZM650.041 83.5054V263.495C673.736 263.231 696.371 253.634 713.033 236.785C729.696 219.936 739.041 197.196 739.041 173.5C739.041 149.804 729.696 127.064 713.033 110.215C696.371 93.3663 673.736 83.7688 650.041 83.5054Z" fill="#3F3D56"/>
<path d="M368.778 303H351.778C350.585 302.999 349.441 302.524 348.597 301.68C347.753 300.837 347.279 299.693 347.278 298.5V249.5C347.279 248.307 347.753 247.163 348.597 246.319C349.441 245.476 350.585 245.001 351.778 245H368.778C369.971 245.001 371.115 245.476 371.958 246.319C372.802 247.163 373.276 248.307 373.278 249.5V298.5C373.276 299.693 372.802 300.837 371.958 301.68C371.114 302.524 369.971 302.999 368.778 303Z" fill="#CCCCCC"/>
<path d="M418.778 303H401.778C400.585 302.999 399.441 302.524 398.597 301.68C397.753 300.837 397.279 299.693 397.278 298.5V226.5C397.279 225.307 397.753 224.163 398.597 223.319C399.441 222.476 400.585 222.001 401.778 222H418.778C419.971 222.001 421.115 222.476 421.958 223.319C422.802 224.163 423.276 225.307 423.278 226.5V298.5C423.276 299.693 422.802 300.837 421.958 301.68C421.114 302.524 419.971 302.999 418.778 303Z" fill="#CAA149"/>
<path d="M468.778 303H451.778C450.585 302.999 449.441 302.524 448.597 301.68C447.753 300.837 447.279 299.693 447.278 298.5V206.5C447.279 205.307 447.753 204.163 448.597 203.319C449.441 202.476 450.585 202.001 451.778 202H468.778C469.971 202.001 471.115 202.476 471.958 203.319C472.802 204.163 473.276 205.307 473.278 206.5V298.5C473.276 299.693 472.802 300.837 471.958 301.68C471.114 302.524 469.971 302.999 468.778 303Z" fill="black"/>
<path d="M368.778 303.5H351.778C350.452 303.498 349.181 302.971 348.244 302.034C347.306 301.096 346.779 299.826 346.778 298.5V188.5C346.779 187.174 347.306 185.903 348.244 184.966C349.181 184.029 350.452 183.502 351.778 183.5H368.778C370.103 183.502 371.374 184.029 372.311 184.966C373.249 185.903 373.776 187.174 373.778 188.5V298.5C373.776 299.826 373.249 301.096 372.311 302.034C371.374 302.971 370.103 303.498 368.778 303.5ZM351.778 185.5C350.982 185.501 350.22 185.817 349.657 186.38C349.095 186.942 348.778 187.705 348.778 188.5V298.5C348.778 299.295 349.095 300.058 349.657 300.62C350.22 301.183 350.982 301.499 351.778 301.5H368.778C369.573 301.499 370.336 301.183 370.898 300.62C371.46 300.058 371.777 299.295 371.778 298.5V188.5C371.777 187.705 371.46 186.942 370.898 186.38C370.336 185.817 369.573 185.501 368.778 185.5H351.778Z" fill="#3F3D56"/>
<path d="M418.778 303.5H401.778C400.452 303.498 399.181 302.971 398.244 302.034C397.306 301.096 396.779 299.826 396.778 298.5V188.5C396.779 187.174 397.306 185.903 398.244 184.966C399.181 184.029 400.452 183.502 401.778 183.5H418.778C420.103 183.502 421.374 184.029 422.311 184.966C423.249 185.903 423.776 187.174 423.778 188.5V298.5C423.776 299.826 423.249 301.096 422.311 302.034C421.374 302.971 420.103 303.498 418.778 303.5ZM401.778 185.5C400.982 185.501 400.22 185.817 399.657 186.38C399.095 186.942 398.778 187.705 398.778 188.5V298.5C398.778 299.295 399.095 300.058 399.657 300.62C400.22 301.183 400.982 301.499 401.778 301.5H418.778C419.573 301.499 420.336 301.183 420.898 300.62C421.46 300.058 421.777 299.295 421.778 298.5V188.5C421.777 187.705 421.46 186.942 420.898 186.38C420.336 185.817 419.573 185.501 418.778 185.5H401.778Z" fill="#3F3D56"/>
<path d="M468.778 303.5H451.778C450.452 303.498 449.181 302.971 448.244 302.034C447.306 301.096 446.779 299.826 446.778 298.5V188.5C446.779 187.174 447.306 185.903 448.244 184.966C449.181 184.029 450.452 183.502 451.778 183.5H468.778C470.103 183.502 471.374 184.029 472.311 184.966C473.249 185.903 473.776 187.174 473.778 188.5V298.5C473.776 299.826 473.249 301.096 472.311 302.034C471.374 302.971 470.103 303.498 468.778 303.5ZM451.778 185.5C450.982 185.501 450.22 185.817 449.657 186.38C449.095 186.942 448.778 187.705 448.778 188.5V298.5C448.778 299.295 449.095 300.058 449.657 300.62C450.22 301.183 450.982 301.499 451.778 301.5H468.778C469.573 301.499 470.336 301.183 470.898 300.62C471.46 300.058 471.777 299.295 471.778 298.5V188.5C471.777 187.705 471.46 186.942 470.898 186.38C470.336 185.817 469.573 185.501 468.778 185.5H451.778Z" fill="#3F3D56"/>
<path d="M112.431 359.003C112.82 357.585 112.893 356.099 112.645 354.65C112.397 353.201 111.835 351.824 110.997 350.616C110.16 349.407 109.068 348.398 107.798 347.657C106.528 346.917 105.111 346.464 103.647 346.33L95.0467 311.646L82.4602 325.299L92.5564 356.143C92.4951 358.617 93.3435 361.028 94.941 362.919C96.5384 364.809 98.7739 366.048 101.224 366.401C103.674 366.753 106.168 366.195 108.233 364.831C110.299 363.468 111.793 361.394 112.431 359.003Z" fill="#FFB8B8"/>
<path d="M89.3748 348.335C88.7914 348.092 88.2658 347.728 87.832 347.268C87.3983 346.808 87.0662 346.262 86.8574 345.666L72.5013 301.488C68.792 290.876 69.0633 279.279 73.2649 268.852L87.1033 234.497C87.4145 232.618 88.093 230.818 89.1002 229.201C90.1073 227.584 91.4233 226.181 92.9729 225.073C94.5225 223.965 96.2753 223.173 98.1312 222.743C99.987 222.313 101.909 222.252 103.789 222.566C105.668 222.879 107.467 223.559 109.083 224.568C110.699 225.577 112.1 226.895 113.206 228.446C114.313 229.996 115.103 231.75 115.531 233.606C115.959 235.463 116.017 237.385 115.702 239.264L96.6094 294.822L103.292 340.06C103.381 340.981 103.185 341.906 102.731 342.712C102.277 343.518 101.586 344.164 100.752 344.564L93.0437 348.243C92.2168 348.637 91.2894 348.769 90.3852 348.623C90.0382 348.567 89.6991 348.471 89.3748 348.335Z" fill="#2F2E41"/>
<path d="M160.343 518.443L172.603 518.442L178.435 471.154L160.341 471.155L160.343 518.443Z" fill="#FFB8B8"/>
<path d="M196.247 529.825L157.717 529.827L157.716 514.94L181.36 514.939C185.308 514.939 189.095 516.507 191.887 519.299C194.679 522.091 196.247 525.877 196.247 529.825Z" fill="#2F2E41"/>
<path d="M99.3431 518.443L111.603 518.442L117.435 471.154L99.3411 471.155L99.3431 518.443Z" fill="#FFB8B8"/>
<path d="M135.247 529.825L96.7166 529.827L96.7159 514.94L120.36 514.939C124.308 514.939 128.095 516.507 130.887 519.299C133.679 522.091 135.247 525.877 135.247 529.825Z" fill="#2F2E41"/>
<path d="M163.694 325.711L174.471 411.097C175.953 422.836 176.989 434.618 177.581 446.443L180.484 504.511C180.511 505.053 180.428 505.594 180.24 506.102C180.051 506.611 179.761 507.075 179.387 507.468C179.014 507.861 178.564 508.174 178.066 508.387C177.568 508.601 177.031 508.711 176.489 508.711H160.133C159.176 508.711 158.251 508.368 157.525 507.744C156.8 507.121 156.322 506.257 156.178 505.311L141.468 408.398C141.397 407.931 141.163 407.504 140.807 407.193C140.452 406.881 139.997 406.706 139.525 406.698C139.052 406.69 138.592 406.85 138.226 407.149C137.86 407.448 137.612 407.866 137.525 408.331L119.803 503.248C119.628 504.101 119.179 504.874 118.524 505.448C117.87 506.023 117.046 506.368 116.177 506.432L101.123 507.387C100.564 507.428 100.003 507.351 99.4755 507.161C98.9483 506.971 98.4668 506.673 98.0623 506.285C97.6579 505.897 97.3394 505.428 97.1277 504.909C96.9159 504.391 96.8155 503.833 96.833 503.273L101.694 347.711L163.694 325.711Z" fill="#2F2E41"/>
<path d="M115.946 204.091C129.511 204.091 140.507 193.095 140.507 179.53C140.507 165.965 129.511 154.969 115.946 154.969C102.382 154.969 91.3853 165.965 91.3853 179.53C91.3853 193.095 102.382 204.091 115.946 204.091Z" fill="#FFB8B8"/>
<path d="M96.6942 349.711C102.694 363.711 128.694 373.711 134.694 353.711C139.334 338.251 157.714 331.751 165.824 329.601C166.844 329.329 167.715 328.667 168.251 327.758C168.786 326.848 168.942 325.765 168.684 324.741L146.014 235.691C144.694 230.504 142.064 225.742 138.376 221.862C134.689 217.982 130.067 215.114 124.954 213.531C106.934 207.951 87.9345 219.441 84.8842 238.051C84.051 243.27 83.5202 248.532 83.2943 253.811C81.4139 293.101 92.744 340.491 96.6942 349.711Z" fill="black"/>
<path d="M178.084 349.685C177.937 348.223 177.471 346.81 176.719 345.547C175.967 344.284 174.947 343.201 173.731 342.375C172.515 341.548 171.133 340.999 169.682 340.764C168.231 340.53 166.746 340.617 165.331 341.018L144.839 311.743L138.001 329.008L158.51 354.161C159.342 356.492 161 358.437 163.171 359.627C165.341 360.817 167.872 361.17 170.285 360.618C172.698 360.066 174.824 358.648 176.262 356.634C177.699 354.619 178.348 352.146 178.084 349.685Z" fill="#FFB8B8"/>
<path d="M152.734 348.019C152.102 348.002 151.481 347.851 150.911 347.578C150.341 347.305 149.835 346.915 149.425 346.433L120.148 310.368C112.873 301.799 108.957 290.879 109.13 279.64L109.694 242.607C109.31 240.741 109.297 238.819 109.656 236.949C110.016 235.078 110.74 233.297 111.787 231.707C112.835 230.117 114.186 228.748 115.763 227.68C117.34 226.612 119.111 225.865 120.977 225.482C122.842 225.099 124.765 225.087 126.635 225.448C128.505 225.808 130.286 226.533 131.875 227.582C133.465 228.63 134.833 229.982 135.9 231.559C136.967 233.137 137.713 234.909 138.095 236.775L140.249 295.482L162.747 335.295C163.161 336.122 163.311 337.056 163.176 337.971C163.042 338.886 162.63 339.737 161.996 340.411L156.125 346.614C155.495 347.279 154.677 347.736 153.78 347.925C153.437 347.997 153.085 348.029 152.734 348.019Z" fill="#2F2E41"/>
<path d="M97.3036 199.619C97.8326 199.933 98.4266 200.121 99.0397 200.168C99.6528 200.215 100.269 200.12 100.839 199.891C101.41 199.663 101.92 199.305 102.331 198.847C102.741 198.39 103.041 197.843 103.206 197.251L103.22 197.195C103.666 195.331 103.296 193.385 103.168 191.472C103.04 189.56 103.227 187.459 104.53 186.053C106.958 183.432 111.277 184.821 114.788 184.158C116.844 183.699 118.663 182.507 119.904 180.804C121.144 179.1 121.722 177.004 121.528 174.905C121.478 174.508 121.4 174.11 121.312 173.712C121.092 172.705 121.109 171.66 121.361 170.66C121.613 169.66 122.094 168.732 122.765 167.949C123.436 167.166 124.28 166.549 125.229 166.147C126.179 165.745 127.209 165.568 128.238 165.631C131.787 165.834 135.616 166.909 138.552 164.281C139.628 163.244 140.375 161.914 140.7 160.455C141.025 158.997 140.913 157.475 140.379 156.08C138.702 151.241 133.965 148.708 129.277 147.316C123.478 145.641 117.38 145.278 111.424 146.256C105.468 147.233 99.8052 149.525 94.8464 152.965C91.8852 155.053 89.1198 157.675 87.8576 161.071C86.5955 164.467 87.2044 168.751 90.0504 170.993C87.8444 173.329 86.2909 176.203 85.5457 179.329C84.8004 182.454 84.8896 185.72 85.8042 188.8C87.2099 193.329 93.9187 197.672 97.3036 199.619Z" fill="#2F2E41"/>
<path d="M276.106 531.441H11.1062C10.841 531.441 10.5866 531.336 10.3991 531.148C10.2116 530.96 10.1062 530.706 10.1062 530.441C10.1062 530.176 10.2116 529.921 10.3991 529.734C10.5866 529.546 10.841 529.441 11.1062 529.441H276.106C276.371 529.441 276.626 529.546 276.813 529.734C277.001 529.921 277.106 530.176 277.106 530.441C277.106 530.706 277.001 530.96 276.813 531.148C276.626 531.336 276.371 531.441 276.106 531.441Z" fill="#3F3D56"/>
</g>
<defs>
<clipPath id="clip0_22_207">
<rect width="772.909" height="531.441" fill="white"/>
</clipPath>
</defs>
</svg>
