<svg width="119" height="132" viewBox="0 0 119 132" fill="none" xmlns="http://www.w3.org/2000/svg">
<path d="M34.9725 131.083C34.3098 131.083 33.6742 130.839 33.2056 130.405C32.737 129.971 32.4737 129.382 32.4737 128.768V122.781L29.2453 125.777C28.7761 126.211 28.14 126.455 27.4769 126.454C26.8138 126.454 26.178 126.21 25.7095 125.775C25.2409 125.34 24.978 124.751 24.9784 124.136C24.9789 123.522 25.2428 122.933 25.712 122.499L32.4737 116.234V111.206L29.2453 114.202C29.013 114.417 28.7372 114.587 28.4338 114.703C28.1304 114.819 27.8052 114.879 27.4769 114.879C26.8138 114.878 26.178 114.634 25.7095 114.199C25.2409 113.765 24.978 113.175 24.9784 112.561C24.9789 111.947 25.2428 111.358 25.712 110.923L32.4737 104.659V98.0514L26.2967 101.353L23.8229 109.919C23.7376 110.212 23.5907 110.488 23.3905 110.729C23.1904 110.97 22.941 111.172 22.6565 111.324C22.372 111.475 22.0581 111.574 21.7326 111.613C21.407 111.653 21.0764 111.632 20.7594 111.553C20.4424 111.474 20.1453 111.338 19.8851 111.153C19.6249 110.967 19.4066 110.736 19.2428 110.472C19.079 110.209 18.9728 109.918 18.9303 109.616C18.8879 109.315 18.9099 109.008 18.9952 108.715L20.1796 104.631L15.4819 107.141L13.0031 115.706C12.8308 116.3 12.4112 116.805 11.8367 117.111C11.2622 117.418 10.5798 117.501 9.93958 117.341C9.29939 117.181 8.75387 116.793 8.42303 116.26C8.09218 115.728 8.00312 115.096 8.17543 114.503L9.35986 110.419L3.76255 113.41C3.18893 113.712 2.5096 113.792 1.8728 113.631C1.236 113.471 0.693433 113.084 0.3635 112.555C0.0335675 112.025 -0.0569453 111.397 0.111714 110.806C0.280373 110.214 0.694511 109.709 1.26375 109.4L6.86106 106.409L2.44319 105.312C2.1262 105.233 1.82911 105.096 1.5689 104.911C1.30869 104.726 1.09045 104.494 0.926633 104.231C0.762816 103.967 0.656635 103.677 0.614152 103.375C0.571669 103.073 0.593717 102.767 0.679035 102.473C0.764353 102.18 0.911272 101.904 1.1114 101.663C1.31153 101.422 1.56096 101.22 1.84543 101.068C2.1299 100.916 2.44386 100.818 2.76937 100.779C3.09488 100.739 3.42557 100.76 3.74256 100.839L12.9781 103.131L17.6759 100.621L13.268 99.5238C12.9462 99.4495 12.6435 99.3166 12.3777 99.1328C12.1119 98.949 11.8883 98.718 11.7198 98.4533C11.5513 98.1887 11.4414 97.8955 11.3965 97.5911C11.3516 97.2866 11.3725 96.9769 11.4581 96.6801C11.5437 96.3832 11.6922 96.1051 11.895 95.8619C12.0978 95.6188 12.3508 95.4154 12.6393 95.2638C12.9277 95.1122 13.2459 95.0153 13.5752 94.9788C13.9045 94.9422 14.2384 94.9668 14.5574 95.0511L23.8029 97.343L29.9749 94.0417L23.7979 90.7403L14.5574 93.0323C14.2384 93.1165 13.9045 93.1411 13.5752 93.1046C13.2459 93.068 12.9277 92.9711 12.6393 92.8195C12.3508 92.6679 12.0978 92.4646 11.895 92.2214C11.6922 91.9783 11.5437 91.7001 11.4581 91.4033C11.3725 91.1064 11.3516 90.7967 11.3965 90.4922C11.4414 90.1878 11.5513 89.8947 11.7198 89.63C11.8883 89.3653 12.1119 89.1343 12.3777 88.9505C12.6435 88.7667 12.9462 88.6338 13.268 88.5595L17.6809 87.4621L12.9831 84.9526L3.73756 87.2445C3.10154 87.3914 2.42869 87.3008 1.86406 86.9924C1.29943 86.6839 0.888231 86.1822 0.719094 85.5955C0.549956 85.0088 0.636427 84.384 0.959869 83.8558C1.28331 83.3276 1.81782 82.9382 2.44818 82.7717L6.86106 81.6744L1.26375 78.6833C0.977277 78.5324 0.725848 78.3304 0.523941 78.0891C0.322034 77.8479 0.173637 77.5719 0.0872947 77.2773C0.000951847 76.9826 -0.0216318 76.6751 0.0208442 76.3723C0.0633203 76.0695 0.170017 75.7775 0.334792 75.5131C0.499566 75.2487 0.719163 75.0171 0.980941 74.8317C1.24272 74.6462 1.54151 74.5105 1.8601 74.4325C2.1787 74.3545 2.5108 74.3356 2.83731 74.3769C3.16381 74.4183 3.47826 74.5191 3.76255 74.6735L9.35986 77.6646L8.17543 73.5761C8.01691 72.9869 8.11465 72.3635 8.44759 71.8404C8.78052 71.3172 9.32199 70.9363 9.95527 70.7796C10.5886 70.6229 11.2629 70.703 11.8331 71.0026C12.4032 71.3023 12.8234 71.7975 13.0031 72.3816L15.4769 80.9428L20.1747 83.4524L18.9952 79.3639C18.8367 78.7746 18.9344 78.1513 19.2674 77.6281C19.6003 77.105 20.1418 76.724 20.7751 76.5673C21.4083 76.4106 22.0827 76.4907 22.6529 76.7904C23.223 77.0901 23.6432 77.5853 23.8229 78.1693L26.2967 86.7306L32.4737 90.0319V83.4246L25.712 77.1599C25.2428 76.7258 24.9789 76.1368 24.9784 75.5225C24.978 74.9081 25.2409 74.3188 25.7095 73.8841C26.178 73.4493 26.8138 73.2049 27.4769 73.2044C28.14 73.204 28.7761 73.4476 29.2453 73.8817L32.4737 76.8775V71.8491L25.712 65.5844C25.4797 65.3695 25.2953 65.1142 25.1694 64.8333C25.0436 64.5523 24.9787 64.2511 24.9784 63.9469C24.9782 63.6428 25.0427 63.3415 25.1681 63.0604C25.2935 62.7793 25.4775 62.5238 25.7095 62.3085C25.9415 62.0933 26.217 61.9225 26.5202 61.8059C26.8235 61.6893 27.1485 61.6291 27.4769 61.6289C27.8052 61.6287 28.1304 61.6884 28.4338 61.8046C28.7372 61.9208 29.013 62.0913 29.2453 62.3062L32.4737 65.302V59.3151C32.4737 58.7011 32.737 58.1122 33.2056 57.6781C33.6742 57.2439 34.3098 57 34.9725 57C35.6353 57 36.2708 57.2439 36.7394 57.6781C37.2081 58.1122 37.4713 58.7011 37.4713 59.3151V65.302L40.7048 62.3062C41.174 61.8721 41.8101 61.6285 42.4732 61.6289C43.1363 61.6294 43.772 61.8738 44.2406 62.3085C44.7091 62.7432 44.9721 63.3326 44.9716 63.9469C44.9711 64.5613 44.7073 65.1503 44.2381 65.5844L37.4713 71.8491V76.8775L40.7048 73.8817C41.174 73.4476 41.8101 73.204 42.4732 73.2044C43.1363 73.2049 43.772 73.4493 44.2406 73.8841C44.7091 74.3188 44.9721 74.9081 44.9716 75.5225C44.9711 76.1368 44.7073 76.7258 44.2381 77.1599L37.4713 83.4246V90.0319L43.6483 86.7306L46.1222 78.1647C46.2075 77.871 46.3544 77.5958 46.5545 77.3547C46.7547 77.1136 47.0041 76.9114 47.2886 76.7596C47.573 76.6078 47.887 76.5095 48.2125 76.4701C48.538 76.4307 48.8687 76.4512 49.1857 76.5302C49.5027 76.6093 49.7998 76.7454 50.06 76.9308C50.3202 77.1162 50.5384 77.3473 50.7022 77.6109C50.8661 77.8744 50.9722 78.1653 51.0147 78.4669C51.0572 78.7685 51.0352 79.0748 50.9498 79.3685L49.7704 83.4524L54.4681 80.9428L56.942 72.3769C57.1143 71.7838 57.5338 71.2784 58.1083 70.9719C58.6829 70.6653 59.3653 70.5828 60.0055 70.7425C60.6457 70.9021 61.1912 71.2908 61.522 71.8231C61.8529 72.3554 61.9419 72.9876 61.7696 73.5808L60.5902 77.6646L66.1875 74.6735C66.7611 74.3713 67.4405 74.2917 68.0773 74.4518C68.7141 74.612 69.2566 74.9991 69.5865 75.5285C69.9165 76.0579 70.007 76.6868 69.8383 77.2778C69.6697 77.8688 69.2555 78.3741 68.6863 78.6833L63.089 81.6744L67.5019 82.7717C68.1421 82.9314 68.6876 83.3201 69.0184 83.8524C69.3493 84.3847 69.4383 85.0169 69.266 85.6101C69.0937 86.2032 68.6741 86.7086 68.0996 87.0151C67.5251 87.3216 66.8427 87.4042 66.2025 87.2445L56.9669 84.9526L52.2692 87.4621L56.6821 88.5595C57.3223 88.7191 57.8678 89.1079 58.1986 89.6401C58.5295 90.1724 58.6185 90.8047 58.4462 91.3978C58.2739 91.9909 57.8544 92.4964 57.2798 92.8029C56.7053 93.1094 56.0229 93.1919 55.3827 93.0323L46.1471 90.7403L39.9701 94.0417L46.1471 97.343L55.3877 95.0511C56.0279 94.892 56.71 94.9751 57.2841 95.2821C57.8582 95.589 58.2771 96.0947 58.4487 96.6878C58.6204 97.281 58.5307 97.913 58.1994 98.4448C57.868 98.9767 57.3223 99.3648 56.6821 99.5238L52.2692 100.621L56.9669 103.131L66.2075 100.839C66.8477 100.68 67.5298 100.763 68.1039 101.07C68.6779 101.377 69.0969 101.882 69.2685 102.476C69.4402 103.069 69.3505 103.701 69.0192 104.233C68.6878 104.764 68.1421 105.153 67.5019 105.312L63.089 106.409L68.6863 109.4C69.2555 109.709 69.6697 110.214 69.8383 110.806C70.007 111.397 69.9165 112.025 69.5865 112.555C69.2566 113.084 68.7141 113.471 68.0773 113.631C67.4405 113.792 66.7611 113.712 66.1875 113.41L60.5902 110.419L61.7696 114.507C61.8606 114.803 61.8871 115.112 61.8477 115.417C61.8082 115.722 61.7036 116.017 61.54 116.284C61.3763 116.552 61.1569 116.786 60.8944 116.974C60.632 117.162 60.3318 117.299 60.0114 117.379C59.6909 117.458 59.3567 117.477 59.0281 117.436C58.6994 117.394 58.3831 117.292 58.0974 117.136C57.8117 116.98 57.5624 116.773 57.364 116.527C57.1656 116.28 57.0222 116 56.942 115.702L54.4681 107.141L49.7704 104.631L50.9498 108.719C51.1084 109.309 51.0106 109.932 50.6777 110.455C50.3447 110.978 49.8033 111.359 49.17 111.516C48.5367 111.673 47.8623 111.593 47.2922 111.293C46.7221 110.993 46.3019 110.498 46.1222 109.914L43.6483 101.357L37.4713 98.0514V104.659L44.2381 110.923C44.7073 111.358 44.9711 111.947 44.9716 112.561C44.9721 113.175 44.7091 113.765 44.2406 114.199C43.772 114.634 43.1363 114.878 42.4732 114.879C41.8101 114.879 41.174 114.636 40.7048 114.202L37.4713 111.206V116.234L44.2381 122.499C44.7073 122.933 44.9711 123.522 44.9716 124.136C44.9721 124.751 44.7091 125.34 44.2406 125.775C43.772 126.21 43.1363 126.454 42.4732 126.454C41.8101 126.455 41.174 126.211 40.7048 125.777L37.4713 122.781V128.768C37.4713 129.382 37.2081 129.971 36.7394 130.405C36.2708 130.839 35.6353 131.083 34.9725 131.083Z" fill="#578BBC"/>
<path d="M87.0531 71C86.4646 71 85.9003 70.7662 85.4842 70.3501C85.0681 69.9341 84.8343 69.3697 84.8343 68.7812V63.0436L81.9677 65.9146C81.5511 66.3307 80.9862 66.5642 80.3975 66.5637C79.8087 66.5633 79.2442 66.329 78.8282 65.9124C78.4121 65.4958 78.1786 64.931 78.179 64.3422C78.1795 63.7534 78.4137 63.1889 78.8304 62.7729L84.8343 56.7689V39.3429L69.7468 48.0537L67.5458 56.2631C67.3928 56.8315 67.0203 57.3159 66.5101 57.6096C66 57.9034 65.3941 57.9825 64.8256 57.8295C64.2572 57.6765 63.7728 57.304 63.479 56.7938C63.1853 56.2837 63.1062 55.6778 63.2592 55.1093L64.3109 51.1954L59.3409 54.0621C58.8315 54.3516 58.2283 54.428 57.6629 54.2745C57.0975 54.121 56.6157 53.7501 56.3228 53.2427C56.0298 52.7353 55.9494 52.1326 56.0992 51.5662C56.249 50.9997 56.6167 50.5155 57.1221 50.2192L62.0921 47.3526L58.1694 46.3009C57.8879 46.2251 57.6241 46.0947 57.3931 45.917C57.162 45.7393 56.9682 45.5178 56.8228 45.2652C56.6773 45.0126 56.583 44.7338 56.5453 44.4448C56.5076 44.1558 56.5272 43.8622 56.6029 43.5807C56.6787 43.2992 56.8091 43.0354 56.9868 42.8044C57.1645 42.5733 57.386 42.3796 57.6386 42.2341C57.8912 42.0886 58.17 41.9944 58.459 41.9566C58.748 41.9189 59.0417 41.9385 59.3231 42.0143L67.5236 44.2108L82.6156 35.5L67.5281 26.7892L59.3187 28.9858C58.7539 29.1265 58.1565 29.0397 57.6552 28.7441C57.1538 28.4485 56.7887 27.9677 56.6385 27.4054C56.4883 26.8431 56.5651 26.2443 56.8523 25.738C57.1395 25.2318 57.6141 24.8587 58.1738 24.6991L62.0921 23.6474L57.1221 20.7808C56.8678 20.6362 56.6445 20.4427 56.4652 20.2114C56.2859 19.9802 56.1542 19.7157 56.0775 19.4333C56.0008 19.151 55.9808 18.8562 56.0185 18.566C56.0562 18.2759 56.151 17.996 56.2973 17.7426C56.4436 17.4892 56.6386 17.2673 56.871 17.0895C57.1034 16.9118 57.3687 16.7818 57.6516 16.707C57.9345 16.6322 58.2294 16.6141 58.5193 16.6537C58.8092 16.6934 59.0884 16.79 59.3409 16.9379L64.3109 19.8046L63.2592 15.8862C63.1784 15.603 63.1549 15.3066 63.1899 15.0142C63.2249 14.7218 63.3178 14.4393 63.4631 14.1831C63.6084 13.927 63.8033 13.7023 64.0363 13.5223C64.2693 13.3422 64.5359 13.2103 64.8204 13.1343C65.1049 13.0583 65.4017 13.0398 65.6935 13.0796C65.9853 13.1195 66.2662 13.2171 66.5199 13.3667C66.7736 13.5163 66.9949 13.7149 67.1711 13.9509C67.3472 14.1869 67.4746 14.4556 67.5458 14.7414L69.7424 22.9463L84.8343 31.6571V14.2311L78.8304 8.22713C78.6241 8.02113 78.4604 7.77651 78.3486 7.50725C78.2369 7.23799 78.1792 6.94935 78.179 6.65782C78.1788 6.36629 78.2361 6.07757 78.3474 5.80815C78.4588 5.53873 78.6222 5.29388 78.8282 5.08759C79.0342 4.8813 79.2788 4.71761 79.548 4.60585C79.8173 4.4941 80.1059 4.43647 80.3975 4.43627C80.689 4.43606 80.9777 4.49328 81.2471 4.60465C81.5165 4.71603 81.7614 4.87938 81.9677 5.08538L84.8343 7.95644V2.21875C84.8343 1.6303 85.0681 1.06595 85.4842 0.649857C85.9003 0.233761 86.4646 0 87.0531 0C87.6415 0 88.2059 0.233761 88.622 0.649857C89.0381 1.06595 89.2718 1.6303 89.2718 2.21875V7.95644L92.1429 5.08538C92.5595 4.66934 93.1243 4.43585 93.7131 4.43627C94.3019 4.43668 94.8664 4.67097 95.2824 5.08759C95.6984 5.50422 95.9319 6.06904 95.9315 6.65782C95.9311 7.2466 95.6968 7.81109 95.2802 8.22713L89.2718 14.2311V31.6571L104.359 22.9463L106.56 14.7369C106.713 14.1685 107.086 13.6841 107.596 13.3903C108.106 13.0966 108.712 13.0175 109.28 13.1705C109.849 13.3235 110.333 13.696 110.627 14.2062C110.921 14.7163 111 15.3222 110.847 15.8907L109.8 19.8046L114.77 16.9379C115.279 16.6484 115.882 16.572 116.448 16.7255C117.013 16.879 117.495 17.2499 117.788 17.7573C118.081 18.2647 118.161 18.8674 118.011 19.4339C117.862 20.0003 117.494 20.4845 116.988 20.7808L112.018 23.6474L115.937 24.6991C116.505 24.8521 116.99 25.2247 117.283 25.7348C117.577 26.2449 117.656 26.8509 117.503 27.4193C117.35 27.9878 116.978 28.4721 116.468 28.7659C115.957 29.0597 115.351 29.1387 114.783 28.9858L106.582 26.7892L91.4906 35.5L106.578 44.2108L114.783 42.0143C115.351 41.8618 115.957 41.9415 116.467 42.2357C116.977 42.5298 117.349 43.0145 117.501 43.5829C117.653 44.1513 117.574 44.757 117.28 45.2668C116.985 45.7765 116.501 46.1485 115.932 46.3009L112.014 47.3526L116.984 50.2192C117.489 50.5155 117.857 50.9997 118.007 51.5662C118.157 52.1326 118.076 52.7353 117.783 53.2427C117.49 53.7501 117.009 54.121 116.443 54.2745C115.878 54.428 115.275 54.3516 114.765 54.0621L109.795 51.1954L110.842 55.1138C110.923 55.397 110.947 55.6934 110.912 55.9858C110.877 56.2782 110.784 56.5607 110.639 56.8169C110.493 57.073 110.298 57.2977 110.065 57.4777C109.832 57.6578 109.566 57.7897 109.281 57.8657C108.997 57.9417 108.7 57.9603 108.408 57.9204C108.116 57.8805 107.835 57.7829 107.582 57.6333C107.328 57.4837 107.107 57.2851 106.931 57.0491C106.754 56.8131 106.627 56.5444 106.556 56.2586L104.359 48.0537L89.2718 39.3429V56.7689L95.2757 62.7729C95.6924 63.1889 95.9267 63.7534 95.9271 64.3422C95.9275 64.931 95.694 65.4958 95.278 65.9124C94.8619 66.329 94.2974 66.5633 93.7087 66.5637C93.1199 66.5642 92.5551 66.3307 92.1384 65.9146L89.2674 63.0436V68.7812C89.2674 69.3697 89.0336 69.9341 88.6175 70.3501C88.2014 70.7662 87.6415 71 87.0531 71Z" fill="#578BBC"/>
</svg>
