<svg width="1045" height="682" viewBox="0 0 1045 682" fill="none" xmlns="http://www.w3.org/2000/svg">
<g clip-path="url(#clip0_0_1)">
<path d="M253.512 491.198H855.969C860.082 491.193 864.025 489.558 866.933 486.651C869.841 483.744 871.476 479.803 871.481 475.692V104.335C871.478 101.323 870.279 98.4354 868.149 96.3056C866.018 94.1759 863.13 92.9778 860.117 92.9744H249.561C246.496 92.9779 243.557 94.1966 241.39 96.3631C239.222 98.5297 238.003 101.467 238 104.531V475.692C238.005 479.803 239.64 483.744 242.548 486.651C245.456 489.558 249.399 491.193 253.512 491.198Z" fill="#F2F2F2"/>
<path d="M275.489 469.238H836.964C845.194 469.238 851.89 462.97 851.89 455.265V131.883C851.89 126.169 846.928 121.52 840.829 121.52H271.806C265.606 121.52 260.562 126.246 260.562 132.054V455.265C260.562 462.97 267.258 469.238 275.489 469.238Z" fill="white"/>
<path d="M342.309 405H767.691C773.927 405 779 400.674 779 395.356V172.153C779 168.209 775.241 165 770.62 165H339.519C334.821 165 331 168.262 331 172.27V395.356C331 400.674 336.073 405 342.309 405Z" fill="#82E297"/>
<path d="M238.216 103.448H871.699V95.5532C871.693 91.4284 870.05 87.4744 867.132 84.5586C864.213 81.6428 860.257 80.0034 856.13 80H253.784C249.658 80.0034 245.701 81.6428 242.783 84.5586C239.864 87.4744 238.222 91.4284 238.216 95.5532V103.448Z" fill="#E6E6E6"/>
<path d="M843.406 95.7726C841.182 95.7726 839.379 93.9703 839.379 91.7471C839.379 89.5239 841.182 87.7217 843.406 87.7217C845.63 87.7217 847.433 89.5239 847.433 91.7471C847.433 93.9703 845.63 95.7726 843.406 95.7726Z" fill="white"/>
<path d="M828.121 95.7726C825.897 95.7726 824.094 93.9703 824.094 91.7471C824.094 89.5239 825.897 87.7217 828.121 87.7217C830.345 87.7217 832.148 89.5239 832.148 91.7471C832.148 93.9703 830.345 95.7726 828.121 95.7726Z" fill="white"/>
<path d="M812.836 95.7726C810.612 95.7726 808.809 93.9703 808.809 91.7471C808.809 89.5239 810.612 87.7217 812.836 87.7217C815.06 87.7217 816.863 89.5239 816.863 91.7471C816.863 93.9703 815.06 95.7726 812.836 95.7726Z" fill="white"/>
<path d="M761.257 425.703C761.598 424.068 762.294 422.528 763.295 421.192C764.295 419.855 765.577 418.753 767.05 417.965C768.523 417.177 770.15 416.721 771.818 416.63C773.486 416.539 775.154 416.814 776.704 417.437L803.359 386.819L809.021 407.138L782.84 433.098C781.621 435.632 779.515 437.63 776.92 438.715C774.326 439.8 771.423 439.895 768.763 438.984C766.103 438.072 763.869 436.217 762.486 433.769C761.103 431.321 760.665 428.451 761.257 425.703Z" fill="#FFB8B8"/>
<path d="M907.554 282.022C922.967 282.022 935.461 269.531 935.461 254.124C935.461 238.716 922.967 226.226 907.554 226.226C892.141 226.226 879.646 238.716 879.646 254.124C879.646 269.531 892.141 282.022 907.554 282.022Z" fill="#FFB8B8"/>
<path d="M874.769 638.123L860.839 638.122L854.212 584.41L874.771 584.411L874.769 638.123Z" fill="#FFB8B8"/>
<path d="M878.322 651.622L833.405 651.62V651.052C833.405 648.757 833.857 646.484 834.736 644.364C835.614 642.244 836.902 640.317 838.526 638.694C840.149 637.071 842.076 635.784 844.198 634.906C846.319 634.028 848.592 633.576 850.888 633.576L878.322 633.577L878.322 651.622Z" fill="#2F2E41"/>
<path d="M916.811 652.89L902.88 652.888L900.952 600.46L916.813 599.177L916.811 652.89Z" fill="#FFB8B8"/>
<path d="M920.362 666.388L875.446 666.386V665.818C875.446 663.523 875.898 661.25 876.777 659.13C877.655 657.01 878.943 655.083 880.566 653.46C882.19 651.837 884.117 650.55 886.238 649.672C888.359 648.793 890.633 648.341 892.929 648.342L920.363 648.343L920.362 666.388Z" fill="#2F2E41"/>
<path d="M912.848 643.087L902.001 641.81C900.77 641.663 899.635 641.075 898.805 640.155C897.975 639.235 897.506 638.046 897.485 636.808L895.452 495.578C895.447 495.178 895.3 494.793 895.039 494.49C894.778 494.188 894.419 493.986 894.025 493.922C893.63 493.857 893.225 493.933 892.881 494.136C892.537 494.34 892.275 494.657 892.142 495.034L877.092 537.514L878.168 617.139C878.186 618.453 877.697 619.724 876.802 620.687C875.907 621.65 874.676 622.232 873.363 622.31L859.201 622.911C857.906 622.985 856.63 622.566 855.631 621.74C854.631 620.913 853.981 619.739 853.81 618.453L846.413 528.38L846.409 528.323L857.632 434.253L941.922 440.349L918.524 638.61C918.375 639.852 917.777 640.997 916.842 641.829C915.907 642.66 914.7 643.12 913.449 643.123C913.248 643.123 913.047 643.111 912.848 643.087Z" fill="#2F2E41"/>
<path d="M857.991 442.592C857.234 442.188 856.592 441.6 856.124 440.881C855.657 440.163 855.378 439.337 855.315 438.482C855.315 438.482 862.895 391.362 865.673 390.478L859.596 340.088C858.868 333.942 859.375 327.713 861.088 321.766C862.802 315.819 865.686 310.274 869.572 305.456C873.315 300.782 877.966 296.915 883.245 294.088C888.524 291.26 894.321 289.532 900.287 289.006C901.137 288.93 901.981 288.871 902.821 288.831C910.013 288.446 917.191 289.802 923.746 292.785C930.3 295.767 936.037 300.288 940.47 305.962C945.068 311.684 948.214 318.433 949.643 325.632C951.071 332.832 950.738 340.27 948.673 347.314L945.265 359.171V442.038C945.261 442.847 945.068 443.644 944.7 444.365C944.333 445.085 943.802 445.71 943.149 446.188C932.535 453.975 920.541 456.728 908.885 456.728C886.829 456.728 865.984 446.869 857.991 442.592Z" fill="#D49D36"/>
<path d="M792.555 427.428L777.895 416.469C777.32 416.039 776.842 415.493 776.492 414.866C776.142 414.239 775.928 413.546 775.864 412.831C775.8 412.116 775.887 411.395 776.12 410.716C776.353 410.038 776.727 409.415 777.217 408.89L864.552 315.212C867.356 312.231 871.135 310.354 875.205 309.921C879.275 309.489 883.365 310.529 886.733 312.855C888.785 314.285 890.497 316.15 891.746 318.316C892.995 320.483 893.751 322.898 893.96 325.39C894.168 327.882 893.825 330.389 892.954 332.733C892.083 335.077 890.706 337.201 888.921 338.952L799.199 426.983C798.41 427.764 797.388 428.265 796.288 428.41C795.187 428.556 794.07 428.337 793.105 427.787C792.915 427.679 792.731 427.559 792.555 427.428Z" fill="#D49D36"/>
<path d="M904.759 415.024C905.399 413.482 906.371 412.1 907.604 410.973C908.837 409.847 910.302 409.005 911.896 408.506C913.491 408.007 915.175 407.864 916.83 408.086C918.486 408.308 920.072 408.89 921.478 409.792L953.392 384.697L955.152 405.715L924.577 426.324C922.906 428.585 920.463 430.154 917.711 430.735C914.959 431.315 912.09 430.867 909.647 429.474C907.204 428.081 905.357 425.841 904.456 423.178C903.555 420.515 903.663 417.614 904.759 415.024Z" fill="#FFB8B8"/>
<path d="M933.322 424.821C932.478 424.559 931.716 424.08 931.114 423.433C930.511 422.785 930.089 421.992 929.888 421.131L926.664 407.596C926.427 406.635 926.479 405.626 926.813 404.694C927.146 403.763 927.747 402.95 928.539 402.357L950.229 378.908L918.325 329.73C915.91 326.758 914.549 323.069 914.454 319.242C914.359 315.414 915.535 311.662 917.8 308.574C919.605 306.113 922.028 304.173 924.825 302.95C927.622 301.727 930.692 301.265 933.725 301.61C936.758 301.955 939.646 303.096 942.096 304.916C944.546 306.736 946.471 309.171 947.677 311.975L977.338 369.688C980.286 375.422 981.022 382.04 979.404 388.281C977.786 394.522 973.928 399.95 968.565 403.531L938.253 423.772C937.325 424.602 936.124 425.062 934.878 425.063C934.35 425.062 933.826 424.981 933.322 424.821Z" fill="#D49D36"/>
<path d="M928.233 279.064C927.575 279.458 926.835 279.696 926.071 279.759C925.307 279.822 924.538 279.708 923.825 279.427C923.111 279.145 922.473 278.703 921.958 278.135C921.443 277.567 921.065 276.888 920.855 276.151L920.837 276.081C920.269 273.76 920.718 271.33 920.864 268.945C921.011 266.56 920.764 263.942 919.13 262.198C916.084 258.946 910.706 260.707 906.323 259.904C903.755 259.346 901.478 257.871 899.92 255.755C898.361 253.64 897.627 251.03 897.855 248.413C897.914 247.917 898.009 247.42 898.116 246.924C898.384 245.666 898.356 244.363 898.034 243.118C897.713 241.873 897.108 240.719 896.265 239.748C895.423 238.776 894.367 238.012 893.18 237.517C891.993 237.022 890.707 236.809 889.423 236.894C884.999 237.171 880.23 238.537 876.551 235.28C875.202 233.994 874.261 232.341 873.846 230.524C873.431 228.708 873.561 226.81 874.218 225.067C876.277 219.023 882.168 215.833 888.006 214.066C895.227 211.939 902.831 211.446 910.265 212.625C917.7 213.804 924.778 216.624 930.986 220.88C934.693 223.463 938.16 226.714 939.757 230.94C941.353 235.165 940.623 240.511 937.088 243.325C939.855 246.222 941.812 249.796 942.762 253.687C943.712 257.579 943.623 261.651 942.503 265.497C940.78 271.154 932.441 276.613 928.233 279.064Z" fill="#2F2E41"/>
<path d="M958.794 668.54H791.765C791.464 668.54 791.175 668.421 790.962 668.208C790.749 667.995 790.629 667.706 790.629 667.404C790.629 667.103 790.749 666.814 790.962 666.601C791.175 666.388 791.464 666.269 791.765 666.269H958.794C959.421 666.269 959.302 667.404 959.93 667.404C960.212 667.404 959.421 668.54 958.794 668.54Z" fill="#CCCCCC"/>
<path d="M442.956 240.472C442.956 236.035 443.916 232.088 445.836 228.632C447.756 225.133 450.422 222.424 453.836 220.504C457.292 218.541 461.196 217.56 465.548 217.56C470.881 217.56 475.446 218.968 479.244 221.784C483.041 224.6 485.58 228.44 486.86 233.304H474.828C473.932 231.427 472.652 229.997 470.988 229.016C469.366 228.035 467.51 227.544 465.42 227.544C462.049 227.544 459.318 228.717 457.228 231.064C455.137 233.411 454.092 236.547 454.092 240.472C454.092 244.397 455.137 247.533 457.228 249.88C459.318 252.227 462.049 253.4 465.42 253.4C467.51 253.4 469.366 252.909 470.988 251.928C472.652 250.947 473.932 249.517 474.828 247.64H486.86C485.58 252.504 483.041 256.344 479.244 259.16C475.446 261.933 470.881 263.32 465.548 263.32C461.196 263.32 457.292 262.36 453.836 260.44C450.422 258.477 447.756 255.768 445.836 252.312C443.916 248.856 442.956 244.909 442.956 240.472ZM504.506 254.552H518.842V263H493.562V218.072H504.506V254.552ZM535.006 218.072V263H524.062V218.072H535.006ZM574.937 270.68L569.177 262.936C567.47 263.277 565.806 263.448 564.185 263.448C559.961 263.448 556.078 262.467 552.537 260.504C549.038 258.541 546.243 255.811 544.153 252.312C542.105 248.771 541.081 244.803 541.081 240.408C541.081 236.013 542.105 232.067 544.153 228.568C546.243 225.069 549.038 222.339 552.537 220.376C556.078 218.413 559.961 217.432 564.185 217.432C568.409 217.432 572.27 218.413 575.769 220.376C579.31 222.339 582.083 225.069 584.089 228.568C586.137 232.067 587.161 236.013 587.161 240.408C587.161 244.248 586.371 247.768 584.793 250.968C583.257 254.125 581.102 256.749 578.329 258.84L588.185 270.68H574.937ZM552.281 240.408C552.281 244.376 553.347 247.555 555.481 249.944C557.657 252.291 560.558 253.464 564.185 253.464C567.769 253.464 570.627 252.269 572.761 249.88C574.937 247.491 576.025 244.333 576.025 240.408C576.025 236.44 574.937 233.283 572.761 230.936C570.627 228.547 567.769 227.352 564.185 227.352C560.558 227.352 557.657 228.525 555.481 230.872C553.347 233.219 552.281 236.397 552.281 240.408ZM604.126 218.072V244.952C604.126 247.64 604.788 249.709 606.11 251.16C607.433 252.611 609.374 253.336 611.934 253.336C614.494 253.336 616.457 252.611 617.822 251.16C619.188 249.709 619.87 247.64 619.87 244.952V218.072H630.814V244.888C630.814 248.899 629.961 252.291 628.254 255.064C626.548 257.837 624.244 259.928 621.342 261.336C618.484 262.744 615.284 263.448 611.742 263.448C608.201 263.448 605.022 262.765 602.206 261.4C599.433 259.992 597.236 257.901 595.614 255.128C593.993 252.312 593.182 248.899 593.182 244.888V218.072H604.126ZM649.443 226.84V235.928H664.099V244.376H649.443V254.232H666.019V263H638.499V218.072H666.019V226.84H649.443ZM468.53 342.064H451.762L449.074 350H437.618L453.874 305.072H466.546L482.802 350H471.218L468.53 342.064ZM465.714 333.616L460.146 317.168L454.642 333.616H465.714ZM519.749 357.68L513.989 349.936C512.283 350.277 510.619 350.448 508.997 350.448C504.773 350.448 500.891 349.467 497.349 347.504C493.851 345.541 491.056 342.811 488.965 339.312C486.917 335.771 485.893 331.803 485.893 327.408C485.893 323.013 486.917 319.067 488.965 315.568C491.056 312.069 493.851 309.339 497.349 307.376C500.891 305.413 504.773 304.432 508.997 304.432C513.221 304.432 517.083 305.413 520.581 307.376C524.123 309.339 526.896 312.069 528.901 315.568C530.949 319.067 531.973 323.013 531.973 327.408C531.973 331.248 531.184 334.768 529.605 337.968C528.069 341.125 525.915 343.749 523.141 345.84L532.997 357.68H519.749ZM497.093 327.408C497.093 331.376 498.16 334.555 500.293 336.944C502.469 339.291 505.371 340.464 508.997 340.464C512.581 340.464 515.44 339.269 517.573 336.88C519.749 334.491 520.837 331.333 520.837 327.408C520.837 323.44 519.749 320.283 517.573 317.936C515.44 315.547 512.581 314.352 508.997 314.352C505.371 314.352 502.469 315.525 500.293 317.872C498.16 320.219 497.093 323.397 497.093 327.408ZM548.939 305.072V331.952C548.939 334.64 549.6 336.709 550.923 338.16C552.245 339.611 554.187 340.336 556.747 340.336C559.307 340.336 561.269 339.611 562.635 338.16C564 336.709 564.683 334.64 564.683 331.952V305.072H575.627V331.888C575.627 335.899 574.773 339.291 573.067 342.064C571.36 344.837 569.056 346.928 566.155 348.336C563.296 349.744 560.096 350.448 556.555 350.448C553.013 350.448 549.835 349.765 547.019 348.4C544.245 346.992 542.048 344.901 540.427 342.128C538.805 339.312 537.995 335.899 537.995 331.888V305.072H548.939ZM594.256 305.072V350H583.312V305.072H594.256ZM616.587 303.472L615.307 334.128H606.027L604.747 303.472H616.587ZM610.827 350.512C608.907 350.512 607.328 349.957 606.091 348.848C604.896 347.696 604.299 346.288 604.299 344.624C604.299 342.917 604.896 341.488 606.091 340.336C607.328 339.184 608.907 338.608 610.827 338.608C612.704 338.608 614.24 339.184 615.435 340.336C616.672 341.488 617.291 342.917 617.291 344.624C617.291 346.288 616.672 347.696 615.435 348.848C614.24 349.957 612.704 350.512 610.827 350.512ZM641.649 303.472L640.369 334.128H631.089L629.809 303.472H641.649ZM635.889 350.512C633.969 350.512 632.391 349.957 631.153 348.848C629.959 347.696 629.361 346.288 629.361 344.624C629.361 342.917 629.959 341.488 631.153 340.336C632.391 339.184 633.969 338.608 635.889 338.608C637.767 338.608 639.303 339.184 640.497 340.336C641.735 341.488 642.353 342.917 642.353 344.624C642.353 346.288 641.735 347.696 640.497 348.848C639.303 349.957 637.767 350.512 635.889 350.512ZM666.712 303.472L665.432 334.128H656.152L654.872 303.472H666.712ZM660.952 350.512C659.032 350.512 657.453 349.957 656.216 348.848C655.021 347.696 654.424 346.288 654.424 344.624C654.424 342.917 655.021 341.488 656.216 340.336C657.453 339.184 659.032 338.608 660.952 338.608C662.829 338.608 664.365 339.184 665.56 340.336C666.797 341.488 667.416 342.917 667.416 344.624C667.416 346.288 666.797 347.696 665.56 348.848C664.365 349.957 662.829 350.512 660.952 350.512Z" fill="white"/>
</g>
<g clip-path="url(#clip1_0_1)">
<path d="M759.195 25.1L749.767 34.5283C749.298 34.9965 748.663 35.2595 748 35.2595C747.338 35.2595 746.702 34.9965 746.233 34.5283L736.803 25.1017C736.334 24.6327 736.071 23.9966 736.071 23.3333C736.071 22.6701 736.334 22.034 736.803 21.565C737.272 21.096 737.908 20.8325 738.572 20.8325C739.235 20.8325 739.871 21.096 740.34 21.565L745.5 26.725V7.5C745.5 6.83696 745.763 6.20107 746.232 5.73223C746.701 5.26339 747.337 5 748 5C748.663 5 749.299 5.26339 749.768 5.73223C750.237 6.20107 750.5 6.83696 750.5 7.5V26.725L755.66 21.5667C756.129 21.0979 756.765 20.8346 757.428 20.8348C758.091 20.8349 758.727 21.0985 759.196 21.5675C759.665 22.0365 759.928 22.6725 759.928 23.3356C759.928 23.9987 759.664 24.6346 759.195 25.1033V25.1Z" fill="white"/>
</g>
<path d="M297.128 13.05V17.31H303.998V21.27H297.128V25.89H304.898V30H291.998V8.94H304.898V13.05H297.128ZM318.128 30L314.918 25.35L312.218 30H306.668L312.188 21.45L306.518 13.26H312.278L315.488 17.88L318.188 13.26H323.738L318.128 21.69L323.888 30H318.128ZM330.995 15.63C331.495 14.85 332.185 14.22 333.065 13.74C333.945 13.26 334.975 13.02 336.155 13.02C337.535 13.02 338.785 13.37 339.905 14.07C341.025 14.77 341.905 15.77 342.545 17.07C343.205 18.37 343.535 19.88 343.535 21.6C343.535 23.32 343.205 24.84 342.545 26.16C341.905 27.46 341.025 28.47 339.905 29.19C338.785 29.89 337.535 30.24 336.155 30.24C334.995 30.24 333.965 30 333.065 29.52C332.185 29.04 331.495 28.42 330.995 27.66V37.98H325.865V13.26H330.995V15.63ZM338.315 21.6C338.315 20.32 337.955 19.32 337.235 18.6C336.535 17.86 335.665 17.49 334.625 17.49C333.605 17.49 332.735 17.86 332.015 18.6C331.315 19.34 330.965 20.35 330.965 21.63C330.965 22.91 331.315 23.92 332.015 24.66C332.735 25.4 333.605 25.77 334.625 25.77C335.645 25.77 336.515 25.4 337.235 24.66C337.955 23.9 338.315 22.88 338.315 21.6ZM351.356 7.8V30H346.226V7.8H351.356ZM362.694 30.24C361.054 30.24 359.574 29.89 358.254 29.19C356.954 28.49 355.924 27.49 355.164 26.19C354.424 24.89 354.054 23.37 354.054 21.63C354.054 19.91 354.434 18.4 355.194 17.1C355.954 15.78 356.994 14.77 358.314 14.07C359.634 13.37 361.114 13.02 362.754 13.02C364.394 13.02 365.874 13.37 367.194 14.07C368.514 14.77 369.554 15.78 370.314 17.1C371.074 18.4 371.454 19.91 371.454 21.63C371.454 23.35 371.064 24.87 370.284 26.19C369.524 27.49 368.474 28.49 367.134 29.19C365.814 29.89 364.334 30.24 362.694 30.24ZM362.694 25.8C363.674 25.8 364.504 25.44 365.184 24.72C365.884 24 366.234 22.97 366.234 21.63C366.234 20.29 365.894 19.26 365.214 18.54C364.554 17.82 363.734 17.46 362.754 17.46C361.754 17.46 360.924 17.82 360.264 18.54C359.604 19.24 359.274 20.27 359.274 21.63C359.274 22.97 359.594 24 360.234 24.72C360.894 25.44 361.714 25.8 362.694 25.8ZM379.305 16.05C379.905 15.13 380.655 14.41 381.555 13.89C382.455 13.35 383.455 13.08 384.555 13.08V18.51H383.145C381.865 18.51 380.905 18.79 380.265 19.35C379.625 19.89 379.305 20.85 379.305 22.23V30H374.175V13.26H379.305V16.05ZM402.787 21.36C402.787 21.84 402.757 22.34 402.697 22.86H391.087C391.167 23.9 391.497 24.7 392.077 25.26C392.677 25.8 393.407 26.07 394.267 26.07C395.547 26.07 396.437 25.53 396.937 24.45H402.397C402.117 25.55 401.607 26.54 400.867 27.42C400.147 28.3 399.237 28.99 398.137 29.49C397.037 29.99 395.807 30.24 394.447 30.24C392.807 30.24 391.347 29.89 390.067 29.19C388.787 28.49 387.787 27.49 387.067 26.19C386.347 24.89 385.987 23.37 385.987 21.63C385.987 19.89 386.337 18.37 387.037 17.07C387.757 15.77 388.757 14.77 390.037 14.07C391.317 13.37 392.787 13.02 394.447 13.02C396.067 13.02 397.507 13.36 398.767 14.04C400.027 14.72 401.007 15.69 401.707 16.95C402.427 18.21 402.787 19.68 402.787 21.36ZM397.537 20.01C397.537 19.13 397.237 18.43 396.637 17.91C396.037 17.39 395.287 17.13 394.387 17.13C393.527 17.13 392.797 17.38 392.197 17.88C391.617 18.38 391.257 19.09 391.117 20.01H397.537ZM433.211 13.08C435.291 13.08 436.941 13.71 438.161 14.97C439.401 16.23 440.021 17.98 440.021 20.22V30H434.921V20.91C434.921 19.83 434.631 19 434.051 18.42C433.491 17.82 432.711 17.52 431.711 17.52C430.711 17.52 429.921 17.82 429.341 18.42C428.781 19 428.501 19.83 428.501 20.91V30H423.401V20.91C423.401 19.83 423.111 19 422.531 18.42C421.971 17.82 421.191 17.52 420.191 17.52C419.191 17.52 418.401 17.82 417.821 18.42C417.261 19 416.981 19.83 416.981 20.91V30H411.851V13.26H416.981V15.36C417.501 14.66 418.181 14.11 419.021 13.71C419.861 13.29 420.811 13.08 421.871 13.08C423.131 13.08 424.251 13.35 425.231 13.89C426.231 14.43 427.011 15.2 427.571 16.2C428.151 15.28 428.941 14.53 429.941 13.95C430.941 13.37 432.031 13.08 433.211 13.08ZM442.589 21.6C442.589 19.88 442.909 18.37 443.549 17.07C444.209 15.77 445.099 14.77 446.219 14.07C447.339 13.37 448.589 13.02 449.969 13.02C451.149 13.02 452.179 13.26 453.059 13.74C453.959 14.22 454.649 14.85 455.129 15.63V13.26H460.259V30H455.129V27.63C454.629 28.41 453.929 29.04 453.029 29.52C452.149 30 451.119 30.24 449.939 30.24C448.579 30.24 447.339 29.89 446.219 29.19C445.099 28.47 444.209 27.46 443.549 26.16C442.909 24.84 442.589 23.32 442.589 21.6ZM455.129 21.63C455.129 20.35 454.769 19.34 454.049 18.6C453.349 17.86 452.489 17.49 451.469 17.49C450.449 17.49 449.579 17.86 448.859 18.6C448.159 19.32 447.809 20.32 447.809 21.6C447.809 22.88 448.159 23.9 448.859 24.66C449.579 25.4 450.449 25.77 451.469 25.77C452.489 25.77 453.349 25.4 454.049 24.66C454.769 23.92 455.129 22.91 455.129 21.63ZM466.55 11.52C465.65 11.52 464.91 11.26 464.33 10.74C463.77 10.2 463.49 9.54 463.49 8.76C463.49 7.96 463.77 7.3 464.33 6.78C464.91 6.24 465.65 5.97 466.55 5.97C467.43 5.97 468.15 6.24 468.71 6.78C469.29 7.3 469.58 7.96 469.58 8.76C469.58 9.54 469.29 10.2 468.71 10.74C468.15 11.26 467.43 11.52 466.55 11.52ZM469.1 13.26V30H463.97V13.26H469.1ZM479.628 30.24C478.168 30.24 476.868 29.99 475.728 29.49C474.588 28.99 473.688 28.31 473.028 27.45C472.368 26.57 471.998 25.59 471.918 24.51H476.988C477.048 25.09 477.318 25.56 477.798 25.92C478.278 26.28 478.868 26.46 479.568 26.46C480.208 26.46 480.698 26.34 481.038 26.1C481.398 25.84 481.578 25.51 481.578 25.11C481.578 24.63 481.328 24.28 480.828 24.06C480.328 23.82 479.518 23.56 478.398 23.28C477.198 23 476.198 22.71 475.398 22.41C474.598 22.09 473.908 21.6 473.328 20.94C472.748 20.26 472.458 19.35 472.458 18.21C472.458 17.25 472.718 16.38 473.238 15.6C473.778 14.8 474.558 14.17 475.578 13.71C476.618 13.25 477.848 13.02 479.268 13.02C481.368 13.02 483.018 13.54 484.218 14.58C485.438 15.62 486.138 17 486.318 18.72H481.578C481.498 18.14 481.238 17.68 480.798 17.34C480.378 17 479.818 16.83 479.118 16.83C478.518 16.83 478.058 16.95 477.738 17.19C477.418 17.41 477.258 17.72 477.258 18.12C477.258 18.6 477.508 18.96 478.008 19.2C478.528 19.44 479.328 19.68 480.408 19.92C481.648 20.24 482.658 20.56 483.438 20.88C484.218 21.18 484.898 21.68 485.478 22.38C486.078 23.06 486.388 23.98 486.408 25.14C486.408 26.12 486.128 27 485.568 27.78C485.028 28.54 484.238 29.14 483.198 29.58C482.178 30.02 480.988 30.24 479.628 30.24ZM495.067 25.26L491.737 33.87H488.467L490.207 25.26H495.067ZM503.497 21.63C503.497 19.89 503.847 18.37 504.547 17.07C505.267 15.77 506.257 14.77 507.517 14.07C508.797 13.37 510.257 13.02 511.897 13.02C513.997 13.02 515.747 13.57 517.147 14.67C518.567 15.77 519.497 17.32 519.937 19.32H514.477C514.017 18.04 513.127 17.4 511.807 17.4C510.867 17.4 510.117 17.77 509.557 18.51C508.997 19.23 508.717 20.27 508.717 21.63C508.717 22.99 508.997 24.04 509.557 24.78C510.117 25.5 510.867 25.86 511.807 25.86C513.127 25.86 514.017 25.22 514.477 23.94H519.937C519.497 25.9 518.567 27.44 517.147 28.56C515.727 29.68 513.977 30.24 511.897 30.24C510.257 30.24 508.797 29.89 507.517 29.19C506.257 28.49 505.267 27.49 504.547 26.19C503.847 24.89 503.497 23.37 503.497 21.63ZM527.811 7.8V30H522.681V7.8H527.811ZM534.109 11.52C533.209 11.52 532.469 11.26 531.889 10.74C531.329 10.2 531.049 9.54 531.049 8.76C531.049 7.96 531.329 7.3 531.889 6.78C532.469 6.24 533.209 5.97 534.109 5.97C534.989 5.97 535.709 6.24 536.269 6.78C536.849 7.3 537.139 7.96 537.139 8.76C537.139 9.54 536.849 10.2 536.269 10.74C535.709 11.26 534.989 11.52 534.109 11.52ZM536.659 13.26V30H531.529V13.26H536.659ZM539.357 21.63C539.357 19.89 539.707 18.37 540.407 17.07C541.127 15.77 542.117 14.77 543.377 14.07C544.657 13.37 546.117 13.02 547.757 13.02C549.857 13.02 551.607 13.57 553.007 14.67C554.427 15.77 555.357 17.32 555.797 19.32H550.337C549.877 18.04 548.987 17.4 547.667 17.4C546.727 17.4 545.977 17.77 545.417 18.51C544.857 19.23 544.577 20.27 544.577 21.63C544.577 22.99 544.857 24.04 545.417 24.78C545.977 25.5 546.727 25.86 547.667 25.86C548.987 25.86 549.877 25.22 550.337 23.94H555.797C555.357 25.9 554.427 27.44 553.007 28.56C551.587 29.68 549.837 30.24 547.757 30.24C546.117 30.24 544.657 29.89 543.377 29.19C542.117 28.49 541.127 27.49 540.407 26.19C539.707 24.89 539.357 23.37 539.357 21.63ZM557.521 21.6C557.521 19.88 557.841 18.37 558.481 17.07C559.141 15.77 560.031 14.77 561.151 14.07C562.271 13.37 563.521 13.02 564.901 13.02C566.081 13.02 567.111 13.26 567.991 13.74C568.891 14.22 569.581 14.85 570.061 15.63V13.26H575.191V30H570.061V27.63C569.561 28.41 568.861 29.04 567.961 29.52C567.081 30 566.051 30.24 564.871 30.24C563.511 30.24 562.271 29.89 561.151 29.19C560.031 28.47 559.141 27.46 558.481 26.16C557.841 24.84 557.521 23.32 557.521 21.6ZM570.061 21.63C570.061 20.35 569.701 19.34 568.981 18.6C568.281 17.86 567.421 17.49 566.401 17.49C565.381 17.49 564.511 17.86 563.791 18.6C563.091 19.32 562.741 20.32 562.741 21.6C562.741 22.88 563.091 23.9 563.791 24.66C564.511 25.4 565.381 25.77 566.401 25.77C567.421 25.77 568.281 25.4 568.981 24.66C569.701 23.92 570.061 22.91 570.061 21.63ZM589.102 13.08C591.062 13.08 592.622 13.72 593.782 15C594.962 16.26 595.552 18 595.552 20.22V30H590.452V20.91C590.452 19.79 590.162 18.92 589.582 18.3C589.002 17.68 588.222 17.37 587.242 17.37C586.262 17.37 585.482 17.68 584.902 18.3C584.322 18.92 584.032 19.79 584.032 20.91V30H578.902V13.26H584.032V15.48C584.552 14.74 585.252 14.16 586.132 13.74C587.012 13.3 588.002 13.08 589.102 13.08ZM598.097 21.6C598.097 19.88 598.417 18.37 599.057 17.07C599.717 15.77 600.607 14.77 601.727 14.07C602.847 13.37 604.097 13.02 605.477 13.02C606.577 13.02 607.577 13.25 608.477 13.71C609.397 14.17 610.117 14.79 610.637 15.57V7.8H615.767V30H610.637V27.6C610.157 28.4 609.467 29.04 608.567 29.52C607.687 30 606.657 30.24 605.477 30.24C604.097 30.24 602.847 29.89 601.727 29.19C600.607 28.47 599.717 27.46 599.057 26.16C598.417 24.84 598.097 23.32 598.097 21.6ZM610.637 21.63C610.637 20.35 610.277 19.34 609.557 18.6C608.857 17.86 607.997 17.49 606.977 17.49C605.957 17.49 605.087 17.86 604.367 18.6C603.667 19.32 603.317 20.32 603.317 21.6C603.317 22.88 603.667 23.9 604.367 24.66C605.087 25.4 605.957 25.77 606.977 25.77C607.997 25.77 608.857 25.4 609.557 24.66C610.277 23.92 610.637 22.91 610.637 21.63ZM627.098 30.24C625.458 30.24 623.978 29.89 622.658 29.19C621.358 28.49 620.328 27.49 619.568 26.19C618.828 24.89 618.458 23.37 618.458 21.63C618.458 19.91 618.838 18.4 619.598 17.1C620.358 15.78 621.398 14.77 622.718 14.07C624.038 13.37 625.518 13.02 627.158 13.02C628.798 13.02 630.278 13.37 631.598 14.07C632.918 14.77 633.958 15.78 634.718 17.1C635.478 18.4 635.858 19.91 635.858 21.63C635.858 23.35 635.468 24.87 634.688 26.19C633.928 27.49 632.878 28.49 631.538 29.19C630.218 29.89 628.738 30.24 627.098 30.24ZM627.098 25.8C628.078 25.8 628.908 25.44 629.588 24.72C630.288 24 630.638 22.97 630.638 21.63C630.638 20.29 630.298 19.26 629.618 18.54C628.958 17.82 628.138 17.46 627.158 17.46C626.158 17.46 625.328 17.82 624.668 18.54C624.008 19.24 623.678 20.27 623.678 21.63C623.678 22.97 623.998 24 624.638 24.72C625.298 25.44 626.118 25.8 627.098 25.8ZM643.917 21.6C643.917 19.88 644.237 18.37 644.877 17.07C645.537 15.77 646.427 14.77 647.547 14.07C648.667 13.37 649.917 13.02 651.297 13.02C652.477 13.02 653.507 13.26 654.387 13.74C655.287 14.22 655.977 14.85 656.457 15.63V13.26H661.587V30H656.457V27.63C655.957 28.41 655.257 29.04 654.357 29.52C653.477 30 652.447 30.24 651.267 30.24C649.907 30.24 648.667 29.89 647.547 29.19C646.427 28.47 645.537 27.46 644.877 26.16C644.237 24.84 643.917 23.32 643.917 21.6ZM656.457 21.63C656.457 20.35 656.097 19.34 655.377 18.6C654.677 17.86 653.817 17.49 652.797 17.49C651.777 17.49 650.907 17.86 650.187 18.6C649.487 19.32 649.137 20.32 649.137 21.6C649.137 22.88 649.487 23.9 650.187 24.66C650.907 25.4 651.777 25.77 652.797 25.77C653.817 25.77 654.677 25.4 655.377 24.66C656.097 23.92 656.457 22.91 656.457 21.63ZM664.278 21.66C664.278 20 664.618 18.52 665.298 17.22C665.998 15.92 666.928 14.91 668.088 14.19C669.268 13.45 670.548 13.08 671.928 13.08C672.988 13.08 673.938 13.27 674.778 13.65C675.618 14.01 676.298 14.52 676.818 15.18V13.26H681.948V37.98H676.818V27.9C676.238 28.6 675.528 29.16 674.688 29.58C673.868 30 672.928 30.21 671.868 30.21C670.508 30.21 669.248 29.85 668.088 29.13C666.928 28.41 665.998 27.4 665.298 26.1C664.618 24.8 664.278 23.32 664.278 21.66ZM676.818 21.63C676.818 20.73 676.638 19.98 676.278 19.38C675.938 18.76 675.488 18.3 674.928 18C674.368 17.68 673.778 17.52 673.158 17.52C672.558 17.52 671.978 17.68 671.418 18C670.858 18.3 670.398 18.76 670.038 19.38C669.678 20 669.498 20.76 669.498 21.66C669.498 22.56 669.678 23.32 670.038 23.94C670.398 24.54 670.858 25 671.418 25.32C671.978 25.62 672.558 25.77 673.158 25.77C673.758 25.77 674.338 25.62 674.898 25.32C675.478 25 675.938 24.53 676.278 23.91C676.638 23.29 676.818 22.53 676.818 21.63ZM702.19 13.26V30H697.06V27.72C696.54 28.46 695.83 29.06 694.93 29.52C694.05 29.96 693.07 30.18 691.99 30.18C690.71 30.18 689.58 29.9 688.6 29.34C687.62 28.76 686.86 27.93 686.32 26.85C685.78 25.77 685.51 24.5 685.51 23.04V13.26H690.61V22.35C690.61 23.47 690.9 24.34 691.48 24.96C692.06 25.58 692.84 25.89 693.82 25.89C694.82 25.89 695.61 25.58 696.19 24.96C696.77 24.34 697.06 23.47 697.06 22.35V13.26H702.19ZM708.455 11.52C707.555 11.52 706.815 11.26 706.235 10.74C705.675 10.2 705.395 9.54 705.395 8.76C705.395 7.96 705.675 7.3 706.235 6.78C706.815 6.24 707.555 5.97 708.455 5.97C709.335 5.97 710.055 6.24 710.615 6.78C711.195 7.3 711.485 7.96 711.485 8.76C711.485 9.54 711.195 10.2 710.615 10.74C710.055 11.26 709.335 11.52 708.455 11.52ZM711.005 13.26V30H705.875V13.26H711.005Z" fill="white"/>
<g clip-path="url(#clip2_0_1)">
<path d="M188.25 192.038L258.962 262.75C262.474 266.266 264.446 271.031 264.446 276C264.446 280.969 262.474 285.734 258.962 289.25L188.262 359.975C184.745 363.493 179.974 365.469 175 365.469C170.026 365.469 165.255 363.493 161.737 359.975C158.22 356.458 156.244 351.687 156.244 346.713C156.244 341.738 158.22 336.968 161.737 333.45L200.437 294.75H56.25C51.2772 294.75 46.5081 292.775 42.9917 289.258C39.4754 285.742 37.5 280.973 37.5 276C37.5 271.027 39.4754 266.258 42.9917 262.742C46.5081 259.226 51.2772 257.25 56.25 257.25H200.437L161.75 218.55C158.234 215.033 156.26 210.263 156.261 205.289C156.262 200.316 158.239 195.547 161.756 192.031C165.274 188.516 170.044 186.541 175.017 186.542C179.99 186.543 184.759 188.52 188.275 192.038H188.25Z" fill="#82E297"/>
</g>
<defs>
<clipPath id="clip0_0_1">
<rect width="807" height="602" fill="white" transform="matrix(-1 0 0 1 1045 80)"/>
</clipPath>
<clipPath id="clip1_0_1">
<rect width="40" height="40" fill="white" transform="matrix(0 1 -1 0 768 0)"/>
</clipPath>
<clipPath id="clip2_0_1">
<rect width="300" height="300" fill="white" transform="translate(0 126)"/>
</clipPath>
</defs>
</svg>
