<svg width="698" height="484" viewBox="0 0 698 484" fill="none" xmlns="http://www.w3.org/2000/svg">
<g clip-path="url(#clip0_21_115)">
<path d="M121.175 413.764C118.352 391.089 104.283 368.746 82.6315 361.367C91.1701 384.707 91.1682 410.311 82.6263 433.649C79.2994 442.638 74.662 452.29 77.7914 461.349C79.7385 466.986 84.5018 471.299 89.8261 473.995C95.1509 476.692 101.06 477.977 106.896 479.237L108.044 480.186C117.307 459.292 123.999 436.44 121.175 413.764Z" fill="#F0F0F0"/>
<path d="M82.4166 361.796C95.0251 375.907 102.862 393.627 104.813 412.44C105.305 416.483 105.156 420.578 104.372 424.574C103.482 428.442 101.571 432.001 98.8377 434.882C96.3433 437.62 93.4744 440.131 91.6896 443.427C90.8011 445.127 90.2825 446.996 90.1678 448.911C90.0531 450.825 90.3448 452.742 91.024 454.536C92.5997 459.051 95.7055 462.73 98.8678 466.223C102.379 470.101 106.088 474.074 107.58 479.215C107.761 479.838 108.718 479.522 108.537 478.9C105.941 469.954 97.2473 464.873 93.1014 456.817C91.1669 453.057 90.3548 448.693 92.1685 444.724C93.7544 441.254 96.7106 438.661 99.2602 435.912C101.968 433.14 103.955 429.749 105.047 426.033C106.033 422.09 106.34 418.008 105.954 413.961C105.232 404.838 103.078 395.886 99.5706 387.431C95.6219 377.759 90.0459 368.834 83.0838 361.041C82.6527 360.558 81.9883 361.317 82.4166 361.796Z" fill="white"/>
<path d="M104.542 406.346C107.658 405.59 110.403 403.753 112.288 401.162C114.172 398.572 115.074 395.396 114.831 392.203C114.779 391.557 113.772 391.606 113.824 392.253C114.055 395.226 113.215 398.184 111.455 400.593C109.695 403.002 107.131 404.703 104.226 405.389C103.595 405.539 103.914 406.495 104.542 406.346Z" fill="white"/>
<path d="M100.285 433.661C94.6583 430.305 90.5043 424.954 88.6517 418.674C88.4686 418.052 87.5114 418.369 87.6942 418.99C89.6343 425.521 93.9686 431.081 99.832 434.561C100.391 434.892 100.842 433.99 100.285 433.661Z" fill="white"/>
<path d="M94.6864 378.714C93.5419 379.257 92.2802 379.508 91.0147 379.444C89.7491 379.379 88.5194 379.002 87.4358 378.346C86.8812 378.008 86.4313 378.91 86.9823 379.246C88.1829 379.965 89.5415 380.38 90.9396 380.454C92.3377 380.528 93.7326 380.259 95.0025 379.67C95.1269 379.625 95.2293 379.534 95.2888 379.415C95.3484 379.297 95.3607 379.161 95.3232 379.034C95.2807 378.908 95.19 378.803 95.0707 378.743C94.9515 378.683 94.8134 378.673 94.6864 378.714Z" fill="white"/>
<path d="M16.6364 401.869C16.9767 402.09 17.317 402.311 17.6577 402.541C22.2175 405.535 26.5261 408.895 30.541 412.587C30.856 412.868 31.171 413.157 31.4772 413.446C41.0552 422.443 48.8776 433.139 54.5467 444.988C56.7982 449.706 58.6872 454.587 60.1972 459.591C62.2823 466.501 63.9925 474.159 68.1198 479.812C68.5437 480.406 69.0042 480.974 69.4984 481.512H106.796C106.881 481.469 106.966 481.435 107.051 481.393L108.541 481.461C108.481 481.197 108.413 480.925 108.353 480.662C108.319 480.509 108.277 480.356 108.243 480.203C108.217 480.101 108.192 479.999 108.174 479.905C108.166 479.871 108.157 479.837 108.149 479.812C108.132 479.718 108.106 479.633 108.089 479.548C107.715 478.027 107.329 476.505 106.932 474.984C106.932 474.975 106.932 474.975 106.924 474.967C103.869 463.382 99.8182 451.949 94.1593 441.495C93.989 441.18 93.819 440.857 93.6316 440.543C91.0547 435.845 88.0977 431.364 84.79 427.147C82.9714 424.844 81.0372 422.634 78.9949 420.526C73.7073 415.089 67.5965 410.517 60.8866 406.977C47.5092 399.923 32.0219 397.22 17.7254 401.529C17.3598 401.64 17.002 401.75 16.6364 401.869Z" fill="#F0F0F0"/>
<path d="M16.7202 402.342C35.2931 406.026 52.2315 415.462 65.1296 429.31C67.9592 432.242 70.3085 435.601 72.091 439.263C73.7119 442.887 74.3317 446.878 73.886 450.822C73.5444 454.508 72.7676 458.238 73.3289 461.943C73.6444 463.835 74.3568 465.639 75.4193 467.237C76.4818 468.834 77.8704 470.19 79.494 471.214C83.4733 473.87 88.1709 474.941 92.8013 475.828C97.9424 476.813 103.298 477.755 107.589 480.962C108.109 481.351 108.682 480.522 108.163 480.134C100.698 474.554 90.6937 475.725 82.5271 471.785C78.7164 469.947 75.4372 466.95 74.4932 462.691C73.6677 458.966 74.4654 455.119 74.8436 451.39C75.3348 447.549 74.877 443.646 73.5101 440.022C71.9201 436.281 69.7042 432.837 66.9575 429.838C60.8815 422.989 53.7649 417.136 45.8687 412.494C36.8861 407.147 27.054 403.373 16.7976 401.338C16.1627 401.212 16.0895 402.217 16.7202 402.342Z" fill="white"/>
<path d="M61.2391 424.607C63.2713 422.13 64.3559 419.012 64.2992 415.81C64.2424 412.608 63.048 409.531 60.9293 407.127C60.499 406.643 59.7244 407.288 60.1554 407.773C62.1325 410.008 63.2447 412.875 63.2914 415.856C63.3382 418.838 62.3163 421.738 60.4102 424.033C59.9966 424.533 60.8278 425.103 61.2391 424.607Z" fill="white"/>
<path d="M74.3054 448.976C67.7894 449.68 61.2471 447.906 55.9829 444.006C55.4616 443.619 54.8882 444.448 55.4088 444.834C60.8944 448.882 67.7065 450.715 74.4855 449.967C75.1316 449.895 74.9479 448.905 74.3054 448.976Z" fill="white"/>
<path d="M36.7142 408.471C36.1278 409.593 35.2716 410.552 34.2224 411.262C33.1733 411.971 31.9641 412.41 30.7034 412.537C30.0567 412.601 30.241 413.592 30.8835 413.528C32.2757 413.381 33.6106 412.895 34.7715 412.113C35.9323 411.332 36.8839 410.278 37.543 409.044C37.6149 408.933 37.6417 408.799 37.6181 408.669C37.5944 408.539 37.522 408.422 37.4157 408.344C37.3055 408.268 37.1701 408.239 37.0387 408.263C36.9074 408.287 36.7907 408.362 36.7142 408.471Z" fill="white"/>
<path d="M241.64 299.284C240.868 298.487 240.281 297.532 239.919 296.484C239.557 295.436 239.43 294.322 239.545 293.22C239.661 292.118 240.018 291.054 240.59 290.104C241.161 289.155 241.935 288.342 242.855 287.723L235.96 261.677L249.245 266.14L253.756 290.189C254.694 291.803 255.008 293.704 254.637 295.533C254.266 297.362 253.236 298.991 251.742 300.112C250.249 301.233 248.395 301.768 246.534 301.615C244.672 301.463 242.931 300.633 241.64 299.284Z" fill="#9E616A"/>
<path d="M180.176 474.229L189.429 474.228L193.831 438.578L180.174 438.578L180.176 474.229Z" fill="#9E616A"/>
<path d="M177.816 483.188L207.653 483.187V482.81C207.653 479.734 206.429 476.783 204.251 474.608C202.073 472.433 199.119 471.211 196.039 471.21L177.815 471.211L177.816 483.188Z" fill="#2F2E41"/>
<path d="M223.953 474.229L233.207 474.228L237.609 438.578L223.952 438.578L223.953 474.229Z" fill="#9E616A"/>
<path d="M221.593 483.188L251.43 483.187V482.81C251.43 479.734 250.207 476.783 248.029 474.608C245.851 472.433 242.897 471.211 239.817 471.21L221.593 471.211L221.593 483.188Z" fill="#2F2E41"/>
<path d="M229.1 259.426L232.652 260.406C232.652 260.406 241.931 320.493 242.686 352.157C243.441 383.821 240.422 463.735 240.422 463.735H220.797L204.947 328.032L197.399 463.735H176.265C176.265 463.735 161.169 285.813 167.962 271.489C174.755 257.164 229.1 259.426 229.1 259.426Z" fill="#2F2E41"/>
<path d="M200.79 153.402C190.996 153.402 183.058 145.473 183.058 135.691C183.058 125.909 190.996 117.979 200.79 117.979C210.583 117.979 218.522 125.909 218.522 135.691C218.522 145.473 210.583 153.402 200.79 153.402Z" fill="#9E616A"/>
<path d="M155.886 176.496L183.408 158.531L211.928 159.653L239.667 174.989L229.1 233.793L233.628 267.719C233.628 267.719 192.87 263.196 183.813 269.981C178.523 274.007 172.284 276.603 165.698 277.52L167.207 219.469L155.886 176.496Z" fill="#3F3D56"/>
<path d="M234.383 174.235L237.235 173.644L239.667 174.989C239.667 174.989 246.46 184.035 246.46 192.328C246.46 200.621 254.763 280.535 254.763 280.535L239.667 287.321L227.59 224.746L234.383 174.235Z" fill="#3F3D56"/>
<path d="M185.261 122.705C185.261 122.705 180.624 113.85 190.827 113.044C190.827 113.044 199.525 105.163 208.391 111.604C208.391 111.604 213.227 111.604 215.872 117.07C215.872 117.07 219.675 115.629 220.511 119.485C220.511 119.485 223.294 127.536 220.511 134.781C217.728 142.027 216.804 142.832 216.804 142.832C216.804 142.832 221.377 127.641 210.245 126.836C199.113 126.031 186.656 119.082 185.729 127.938C184.801 136.794 183.405 138.976 183.405 138.976C183.405 138.976 174.594 126.328 185.261 122.705Z" fill="#2F2E41"/>
<path d="M414.4 226.899H634.043V62.5474H414.4V226.899Z" fill="white"/>
<path d="M414.4 226.899H634.043V62.5474H414.4V226.899ZM631.778 64.8091V224.637H416.665V64.8091H631.778Z" fill="#E6E6E6"/>
<path d="M524.29 186.805C501.193 186.805 482.468 168.102 482.468 145.032C482.468 121.961 501.193 103.258 524.29 103.258C547.388 103.258 566.112 121.961 566.112 145.032C566.112 168.102 547.388 186.805 524.29 186.805Z" fill="#CAA149"/>
<path d="M506.923 141.523H521.143V127.321C521.143 126.434 521.495 125.584 522.123 124.957C522.75 124.331 523.601 123.979 524.489 123.979C525.376 123.979 526.227 124.331 526.855 124.957C527.482 125.584 527.835 126.434 527.835 127.321V141.523H542.054C542.941 141.523 543.792 141.876 544.42 142.502C545.047 143.129 545.4 143.979 545.4 144.865C545.4 145.752 545.047 146.602 544.42 147.229C543.792 147.855 542.941 148.208 542.054 148.208H527.835V162.41C527.835 163.297 527.482 164.147 526.855 164.774C526.227 165.4 525.376 165.752 524.489 165.752C523.601 165.752 522.75 165.4 522.123 164.774C521.495 164.147 521.143 163.297 521.143 162.41V148.208H506.923C506.036 148.208 505.185 147.855 504.557 147.229C503.93 146.602 503.577 145.752 503.577 144.865C503.577 143.979 503.93 143.129 504.557 142.502C505.185 141.876 506.036 141.523 506.923 141.523Z" fill="white"/>
<path d="M615.925 61.8612H698V0H615.925V61.8612Z" fill="white"/>
<path d="M615.925 61.8612H698V0H615.925V61.8612ZM696.49 60.3534H617.435V1.50781H696.49V60.3534Z" fill="#E6E6E6"/>
<path d="M626.751 16.8481H687.175V20.8717H626.751V16.8481Z" fill="#E4E4E4"/>
<path d="M626.751 28.9185H687.175V32.9421H626.751V28.9185Z" fill="#E4E4E4"/>
<path d="M626.751 40.9893H687.175V45.0129H626.751V40.9893Z" fill="#E4E4E4"/>
<path d="M70.2157 483.295H152.29V421.434H70.2157V483.295Z" fill="white"/>
<path d="M70.2157 483.295H152.29V421.434H70.2157V483.295ZM150.781 481.787H71.7252V422.941H150.781V481.787Z" fill="#E6E6E6"/>
<path d="M81.0415 438.282H141.465V442.306H81.0415V438.282Z" fill="#E4E4E4"/>
<path d="M81.0415 450.352H141.465V454.376H81.0415V450.352Z" fill="#E4E4E4"/>
<path d="M81.0415 462.423H141.465V466.446H81.0415V462.423Z" fill="#E4E4E4"/>
<path d="M120.06 372.295L181.364 317.788L140.185 271.582L78.8806 326.089L120.06 372.295Z" fill="white"/>
<path d="M120.06 372.295L181.364 317.788L140.185 271.582L78.8806 326.089L120.06 372.295ZM179.233 317.664L120.184 370.167L81.0119 326.213L140.061 273.71L179.233 317.664Z" fill="#E6E6E6"/>
<path d="M143.315 291.355L145.993 294.361L100.861 334.489L98.1824 331.484L143.315 291.355Z" fill="#E4E4E4"/>
<path d="M151.35 300.371L154.028 303.376L108.895 343.505L106.217 340.5L151.35 300.371Z" fill="#E4E4E4"/>
<path d="M159.385 309.387L162.063 312.393L116.931 352.521L114.252 349.516L159.385 309.387Z" fill="#E4E4E4"/>
<path d="M569.455 98.0489H661.016V29.0381H569.455V98.0489Z" fill="white"/>
<path d="M569.455 98.0489H661.016V29.0381H569.455V98.0489ZM659.332 96.3668H571.139V30.7201H659.332V96.3668Z" fill="#E6E6E6"/>
<path d="M581.532 47.8335H648.939V52.3221H581.532V47.8335Z" fill="#CAA149"/>
<path d="M581.532 61.2983H648.939V65.787H581.532V61.2983Z" fill="#CAA149"/>
<path d="M581.532 74.7646H648.939V79.2533H581.532V74.7646Z" fill="#CAA149"/>
<path d="M331.841 278.71H471.564V173.398H331.841V278.71Z" fill="white"/>
<path d="M331.841 278.71H471.564V173.398H331.841V278.71ZM468.995 276.144H334.411V175.965H468.995V276.144Z" fill="#E6E6E6"/>
<path d="M350.271 202.081H453.136V208.931H350.271V202.081Z" fill="#CAA149"/>
<path d="M350.271 222.629H453.136V229.479H350.271V222.629Z" fill="#CAA149"/>
<path d="M350.271 243.178H453.136V250.028H350.271V243.178Z" fill="#CAA149"/>
<path d="M0.898773 484H363.418C363.655 483.999 363.883 483.904 364.051 483.736C364.219 483.568 364.314 483.34 364.314 483.102C364.314 482.865 364.219 482.637 364.051 482.468C363.883 482.3 363.655 482.205 363.418 482.205H0.898773C0.6604 482.205 0.431732 482.299 0.263214 482.468C0.0946655 482.636 -3.05176e-05 482.864 -3.05176e-05 483.102C-3.05176e-05 483.34 0.0946655 483.569 0.263214 483.737C0.431732 483.905 0.6604 484 0.898773 484Z" fill="#CACACA"/>
<path d="M165.269 298.716C165.809 297.748 166.131 296.673 166.211 295.568C166.29 294.463 166.127 293.353 165.731 292.318C165.335 291.282 164.716 290.346 163.919 289.576C163.122 288.805 162.165 288.218 161.116 287.856L161.071 260.916L149.383 268.642L151.218 293.041C150.727 294.841 150.914 296.759 151.743 298.431C152.573 300.103 153.988 301.413 155.72 302.112C157.452 302.812 159.38 302.852 161.14 302.226C162.9 301.6 164.369 300.351 165.269 298.716Z" fill="#9E616A"/>
<path d="M164.188 179.512L158.967 174.485L155.131 177.25C155.131 177.25 151.357 181.774 148.338 195.344C145.319 208.914 148.338 283.551 148.338 283.551L164.943 281.289L162.679 242.086L169.472 208.914L164.188 179.512Z" fill="#3F3D56"/>
</g>
<defs>
<clipPath id="clip0_21_115">
<rect width="698" height="484" fill="white" transform="matrix(-1 0 0 1 698 0)"/>
</clipPath>
</defs>
</svg>
