<svg width="90" height="90" viewBox="0 0 90 90" fill="none" xmlns="http://www.w3.org/2000/svg">
<path d="M45.0416 62.0546L31.6066 75.4896C29.654 77.4423 26.4882 77.4423 24.5355 75.4896C22.5829 73.537 22.5829 70.3712 24.5355 68.4186L41.5061 51.448C43.4587 49.4954 46.6245 49.4954 48.5772 51.448L77.5685 80.4394C79.5212 82.392 79.5212 85.5578 77.5685 87.5105C75.6159 89.4631 72.4501 89.4631 70.4975 87.5105L45.0416 62.0546Z" fill="#292929" stroke="white"/>
<path d="M62.1423 45.0624L75.5773 58.4974C77.5299 60.45 77.5299 63.6158 75.5773 65.5685C73.6247 67.5211 70.4588 67.5211 68.5062 65.5685L51.5357 48.5979C49.583 46.6453 49.583 43.4795 51.5357 41.5268L80.527 12.5355C82.4797 10.5828 85.6455 10.5828 87.5981 12.5355C89.5507 14.4881 89.5507 17.6539 87.5981 19.6065L62.1423 45.0624Z" fill="#292929" stroke="white"/>
<path d="M27.962 45.0416L14.527 31.6066C12.5743 29.654 12.5743 26.4882 14.527 24.5355C16.4796 22.5829 19.6454 22.5829 21.598 24.5355L38.5686 41.5061C40.5212 43.4587 40.5212 46.6245 38.5686 48.5772L9.57722 77.5685C7.6246 79.5212 4.45877 79.5212 2.50615 77.5685C0.55353 75.6159 0.553529 72.4501 2.50615 70.4975L27.962 45.0416Z" fill="#292929" stroke="white"/>
<path d="M45.0624 27.962L58.4974 14.527C60.45 12.5743 63.6158 12.5743 65.5685 14.527C67.5211 16.4796 67.5211 19.6454 65.5685 21.598L48.5979 38.5686C46.6453 40.5212 43.4795 40.5212 41.5268 38.5686L12.5355 9.57722C10.5828 7.6246 10.5828 4.45877 12.5355 2.50615C14.4881 0.55353 17.6539 0.553529 19.6065 2.50615L45.0624 27.962Z" fill="#292929" stroke="white"/>
</svg>
