<svg width="756" height="631" viewBox="0 0 756 631" fill="none" xmlns="http://www.w3.org/2000/svg">
<g clip-path="url(#clip0_7_542)">
<path d="M720.846 601.256C710.374 620.67 688.147 629.003 688.147 629.003C688.147 629.003 682.9 605.861 693.372 586.448C703.845 567.034 726.072 558.7 726.072 558.7C726.072 558.7 731.319 581.842 720.846 601.256Z" fill="#2F2E41"/>
<path d="M713.648 594.869C694.741 606.239 687.459 628.824 687.459 628.824C687.459 628.824 710.832 632.974 729.739 621.604C748.647 610.233 755.928 587.648 755.928 587.648C755.928 587.648 732.555 583.498 713.648 594.869Z" fill="black"/>
<path d="M289.742 31.1766H407.711V32.8612H289.742V31.1766Z" fill="#F2F2F2"/>
<path d="M321.762 32.44H323.448V48.0222H321.762V32.44Z" fill="#F2F2F2"/>
<path d="M373.163 32.44H374.849V48.0222H373.163V32.44Z" fill="#F2F2F2"/>
<path d="M229.916 112.035H347.884V113.72H229.916V112.035Z" fill="#F2F2F2"/>
<path d="M314.179 96.8743H315.864V112.456H314.179V96.8743Z" fill="#F2F2F2"/>
<path d="M262.778 96.8743H264.464V112.456H262.778V96.8743Z" fill="#F2F2F2"/>
<path d="M73.1855 149.938H191.154V151.622H73.1855V149.938Z" fill="#F2F2F2"/>
<path d="M157.449 134.777H159.134V150.359H157.449V134.777Z" fill="#F2F2F2"/>
<path d="M106.048 134.777H107.734V150.359H106.048V134.777Z" fill="#F2F2F2"/>
<path d="M84.9824 540.755H202.951V542.439H84.9824V540.755Z" fill="#F2F2F2"/>
<path d="M169.246 525.594H170.931V541.176H169.246V525.594Z" fill="#F2F2F2"/>
<path d="M117.845 525.594H119.531V541.176H117.845V525.594Z" fill="#F2F2F2"/>
<path d="M286.372 270.384H404.341V272.068H286.372V270.384Z" fill="#F2F2F2"/>
<path d="M370.635 255.223H372.321V270.805H370.635V255.223Z" fill="#F2F2F2"/>
<path d="M319.235 255.223H320.92V270.805H319.235V255.223Z" fill="#F2F2F2"/>
<path d="M249.296 473.373H367.265V475.057H249.296V473.373Z" fill="#F2F2F2"/>
<path d="M333.559 458.212H335.245V473.794H333.559V458.212Z" fill="#F2F2F2"/>
<path d="M282.159 458.212H283.844V473.794H282.159V458.212Z" fill="#F2F2F2"/>
<path d="M60.5461 411.886H178.515V413.571H60.5461V411.886Z" fill="#F2F2F2"/>
<path d="M144.81 396.725H146.495V412.307H144.81V396.725Z" fill="#F2F2F2"/>
<path d="M93.4087 396.725H95.094V412.307H93.4087V396.725Z" fill="#F2F2F2"/>
<path d="M450.844 592.367H650.368V590.932H452.28V521.343H633.595L642.403 503.001L641.109 502.38L632.692 519.908H450.844V592.367Z" fill="#2F2E41"/>
<path d="M623.813 627.52C615.489 627.52 608.741 620.775 608.741 612.454C608.741 604.134 615.489 597.388 623.813 597.388C632.137 597.388 638.885 604.134 638.885 612.454C638.885 620.775 632.137 627.52 623.813 627.52Z" fill="#3F3D56"/>
<path d="M475.247 627.52C466.923 627.52 460.175 620.775 460.175 612.454C460.175 604.134 466.923 597.388 475.247 597.388C483.571 597.388 490.319 604.134 490.319 612.454C490.319 620.775 483.571 627.52 475.247 627.52Z" fill="#3F3D56"/>
<path d="M300.125 301.816C294.972 301.816 290.795 297.64 290.795 292.489C290.795 287.339 294.972 283.163 300.125 283.163C305.278 283.163 309.455 287.339 309.455 292.489C309.455 297.64 305.278 301.816 300.125 301.816Z" fill="#3F3D56"/>
<path d="M429.504 497.669H653.77L702.296 339.121H379.53L379.824 340.054L429.504 497.669ZM652.708 496.234H430.557L381.487 340.556H700.356L652.708 496.234Z" fill="#2F2E41"/>
<path d="M447.01 489.418H643.991L686.613 348.806H403.117L403.375 349.634L447.01 489.418Z" fill="#F2F2F2"/>
<path d="M375.509 324.957L376.896 324.589L367.424 288.902H312.325V290.337H366.32L375.509 324.957Z" fill="#2F2E41"/>
<path d="M395.659 387.187H686.615V388.622H395.659V387.187Z" fill="#2F2E41"/>
<path d="M412.321 440.049H670.436V441.484H412.321V440.049Z" fill="#2F2E41"/>
<path d="M540.2 339.838H541.635V496.951H540.2V339.838Z" fill="#2F2E41"/>
<path d="M475.933 339.793L486.237 496.902L484.805 496.996L474.501 339.887L475.933 339.793Z" fill="#2F2E41"/>
<path d="M605.872 339.792L607.304 339.885L597.06 496.998L595.628 496.904L605.872 339.792Z" fill="#2F2E41"/>
<path d="M0.928467 628.429H755.928V630.114H0.928467V628.429Z" fill="#2F2E41"/>
<path d="M254.215 53.0491C254.215 53.0491 241.897 88.0931 249.477 93.4845C257.058 98.8759 223.894 142.906 223.894 142.906L184.097 132.123L205.891 95.2817C205.891 95.2817 208.733 58.4405 208.733 53.0491C208.733 47.6577 254.215 53.0491 254.215 53.0491Z" fill="#A0616A"/>
<path opacity="0.1" d="M254.215 53.0491C254.215 53.0491 241.897 88.0931 249.477 93.4845C257.058 98.8759 223.894 142.906 223.894 142.906L184.097 132.123L205.891 95.2817C205.891 95.2817 208.733 58.4405 208.733 53.0491C208.733 47.6577 254.215 53.0491 254.215 53.0491Z" fill="black"/>
<path d="M274.891 302.85C274.891 302.85 278.487 347.779 274.891 371.141C271.295 394.504 265.901 459.201 265.901 459.201C265.901 459.201 265.901 581.406 246.125 583.203C226.348 585 211.965 586.797 210.167 579.608C208.369 572.42 219.156 568.826 213.763 565.231C208.369 561.637 206.571 549.057 213.763 534.68C220.954 520.303 213.763 374.736 213.763 374.736L179.603 466.389C179.603 466.389 176.007 541.869 172.411 552.652C168.815 563.434 176.007 583.203 163.422 585C150.836 586.797 136.453 576.014 129.262 572.42C122.07 568.826 140.049 568.826 136.453 567.029C132.858 565.231 122.07 559.84 125.666 558.043C129.262 556.246 132.858 469.983 132.858 469.983C132.858 469.983 142.746 285.778 155.331 278.589C167.916 271.401 176.007 283.782 176.007 283.782L274.891 302.85Z" fill="#2F2E41"/>
<path d="M242.529 576.014V590.391C242.529 590.391 258.71 629.473 242.529 629.473C226.348 629.473 213.763 633.522 213.763 628.131V579.609L242.529 576.014Z" fill="#2F2E41"/>
<path d="M136.453 575.989V590.366C136.453 590.366 120.272 629.447 136.453 629.447C152.634 629.447 165.22 633.497 165.22 628.105V579.583L136.453 575.989Z" fill="#2F2E41"/>
<path d="M229.045 79.1075C211.172 79.1075 196.683 64.6246 196.683 46.7591C196.683 28.8936 211.172 14.4108 229.045 14.4108C246.918 14.4108 261.407 28.8936 261.407 46.7591C261.407 64.6246 246.918 79.1075 229.045 79.1075Z" fill="#A0616A"/>
<path d="M238.933 106.963C238.933 106.963 229.944 133.92 215.561 128.529L201.178 123.137L176.007 295.662C176.007 295.662 195.784 324.416 224.55 306.445C253.316 288.473 238.933 106.963 238.933 106.963Z" fill="black"/>
<path d="M213.763 101.572L205.672 84.4989C205.672 84.4989 158.028 106.963 150.837 114.152C143.645 121.34 143.645 132.123 143.645 132.123L156.23 177.051C156.23 177.051 152.634 275.893 152.634 279.488C152.634 283.082 140.049 302.85 149.039 295.662C158.028 288.473 159.826 281.285 167.018 292.068C174.209 302.85 190.39 315.43 190.39 315.43L213.763 101.572Z" fill="#3F3D56"/>
<path d="M150.837 230.965L156.23 281.285C156.23 281.285 188.592 310.039 181.401 311.836C174.209 313.633 170.613 306.445 170.613 306.445C170.613 306.445 158.028 319.024 150.837 311.836C143.645 304.647 125.666 236.356 125.666 236.356L150.837 230.965Z" fill="#A0616A"/>
<path d="M228.355 1.04167C235.53 0.785305 243.207 0.658491 249.256 4.52298C252.039 6.4624 254.48 8.85099 256.479 11.591C262.371 19.0354 267.461 28.4022 265.273 37.6387L262.731 36.6479C262.731 39.1134 263.28 41.5481 264.336 43.7758C263.979 42.7355 262.78 44.4172 263.101 45.4695L265.901 54.6509C261.298 52.9643 255.573 56.3791 254.872 61.2288C254.552 50.5645 253.445 38.336 244.791 32.0916C240.426 28.9426 234.903 27.9813 229.588 27.1276C224.686 26.3401 219.546 25.5891 214.85 27.2025C210.154 28.8158 206.155 33.6164 207.22 38.4645C205.054 37.7189 202.633 39.2273 201.563 41.2512C200.493 43.2752 200.436 45.6627 200.404 47.9516C198.096 49.5821 195.469 46.3444 194.529 43.6803C192.321 37.427 190.358 30.7704 191.548 24.2464C192.737 17.7225 198.056 11.4878 204.69 11.4657C203.885 10.5816 203.455 9.41907 203.492 8.22401L208.96 7.76218C207.572 7.56571 206.295 6.89291 205.349 5.85902C207.544 8.27377 224.805 1.16852 228.355 1.04167Z" fill="#2F2E41"/>
<path d="M229.944 96.1802C229.944 96.1802 244.58 81.8439 249.847 82.7221C255.114 83.6003 262.306 96.1802 262.306 96.1802C262.306 96.1802 305.455 110.557 303.657 124.934C301.859 139.311 282.083 209.399 282.083 209.399C282.083 209.399 265.902 293.865 280.285 302.85C294.668 311.836 211.965 335.199 210.167 324.416C208.369 313.633 204.773 205.805 210.167 189.631C215.561 173.457 229.944 96.1802 229.944 96.1802Z" fill="#3F3D56"/>
<path d="M167.018 124.934H144.787C144.787 124.934 129.262 193.225 127.464 200.414C125.666 207.602 122.07 241.748 123.868 241.748C125.666 241.748 161.624 234.559 161.624 239.951L167.018 124.934Z" fill="#3F3D56"/>
<path d="M167.77 294.045H252.876C261.181 255.856 261.875 218.959 252.876 183.707H167.77C181.504 218.325 182.363 254.969 167.77 294.045Z" fill="#F2F2F2"/>
<path d="M287.476 247.139L262.306 257.922C262.306 257.922 213.763 265.111 213.763 245.342C213.763 225.574 262.306 236.356 262.306 236.356L278.488 231.185L287.476 247.139Z" fill="#A0616A"/>
<path d="M282.082 114.152L303.657 119.543L319.838 214.791C319.838 214.791 325.232 239.951 316.242 241.748C307.253 243.545 282.082 257.922 282.082 257.922C282.082 257.922 278.487 230.965 271.295 230.965L289.274 216.588L278.487 153.688L282.082 114.152Z" fill="#3F3D56"/>
<path d="M587.192 298.179H705.161V299.863H587.192V298.179Z" fill="#F2F2F2"/>
<path d="M671.456 283.018H673.141V298.6H671.456V283.018Z" fill="#F2F2F2"/>
<path d="M620.055 283.018H621.74V298.6H620.055V283.018Z" fill="#F2F2F2"/>
<path d="M545.903 48.8645H663.872V50.549H545.903V48.8645Z" fill="#F2F2F2"/>
<path d="M577.923 50.1279H579.609V65.71H577.923V50.1279Z" fill="#F2F2F2"/>
<path d="M629.324 50.1279H631.009V65.71H629.324V50.1279Z" fill="#F2F2F2"/>
<path d="M427.092 214.793H545.061V216.478H427.092V214.793Z" fill="#F2F2F2"/>
<path d="M459.112 216.057H460.797V231.639H459.112V216.057Z" fill="#F2F2F2"/>
<path d="M510.512 216.057H512.198V231.639H510.512V216.057Z" fill="#F2F2F2"/>
<path d="M627.639 213.951H745.607V215.636H627.639V213.951Z" fill="#F2F2F2"/>
<path d="M659.659 215.214H661.344V230.797H659.659V215.214Z" fill="#F2F2F2"/>
<path d="M711.059 215.214H712.745V230.797H711.059V215.214Z" fill="#F2F2F2"/>
<path d="M486.076 129.723H604.045V131.408H486.076V129.723Z" fill="#F2F2F2"/>
<path d="M570.34 114.562H572.025V130.144H570.34V114.562Z" fill="#F2F2F2"/>
<path d="M518.939 114.562H520.624V130.144H518.939V114.562Z" fill="#F2F2F2"/>
</g>
<defs>
<clipPath id="clip0_7_542">
<rect width="755" height="630" fill="white" transform="matrix(-1 0 0 1 755.928 0.932281)"/>
</clipPath>
</defs>
</svg>
