<svg width="72" height="72" viewBox="0 0 72 72" fill="none" xmlns="http://www.w3.org/2000/svg">
<path d="M39 66C24.09 66 12 58.254 12 45V44.736C12 38.382 16.014 33.3 22.125 30C27.972 26.844 31.428 21.03 30.564 15L28.875 6L35.133 8.385C46.404 12.675 55.791 20.121 61.875 29.583C64.55 33.6932 65.9823 38.488 66 43.392V45C66 49.686 64.488 53.685 61.875 56.895" stroke="#D26541" stroke-width="6" stroke-linecap="round" stroke-linejoin="round"/>
<path d="M39 66C34.029 66 30 61.701 30 56.4C30 52.2 33.048 48.837 35.73 45.756L39 42L42.27 45.756C44.952 48.84 48 52.2 48 56.4C48 61.701 43.971 66 39 66Z" stroke="#D26541" stroke-width="6" stroke-linecap="round" stroke-linejoin="round"/>
</svg>
