<svg width="60" height="60" viewBox="0 0 60 60" fill="none" xmlns="http://www.w3.org/2000/svg">
<path d="M30 5.40571C38.01 5.40571 38.9586 5.43571 42.1229 5.58C44.0254 5.60328 45.9098 5.95263 47.6943 6.61286C48.9883 7.11192 50.1636 7.87642 51.1443 8.85714C52.125 9.83787 52.8895 11.0131 53.3886 12.3071C54.0488 14.0916 54.3982 15.976 54.4214 17.8786C54.5643 21.0429 54.5957 21.9914 54.5957 30.0014C54.5957 38.0114 54.5657 38.96 54.4214 42.1243C54.3982 44.0268 54.0488 45.9113 53.3886 47.6957C52.8895 48.9898 52.125 50.165 51.1443 51.1457C50.1636 52.1264 48.9883 52.8909 47.6943 53.39C45.9098 54.0502 44.0254 54.3996 42.1229 54.4228C38.96 54.5657 38.0114 54.5971 30 54.5971C21.9886 54.5971 21.04 54.5671 17.8771 54.4228C15.9746 54.3996 14.0902 54.0502 12.3057 53.39C11.0117 52.8909 9.83644 52.1264 8.85572 51.1457C7.87499 50.165 7.11049 48.9898 6.61143 47.6957C5.9512 45.9113 5.60186 44.0268 5.57857 42.1243C5.43572 38.96 5.40429 38.0114 5.40429 30.0014C5.40429 21.9914 5.43429 21.0429 5.57857 17.8786C5.60185 15.976 5.9512 14.0916 6.61143 12.3071C7.11049 11.0131 7.87499 9.83787 8.85572 8.85714C9.83644 7.87642 11.0117 7.11192 12.3057 6.61286C14.0902 5.95263 15.9746 5.60328 17.8771 5.58C21.0414 5.43714 21.99 5.40571 30 5.40571ZM30 1.6094e-06C21.8571 1.17256e-06 20.8314 0.0342867 17.6314 0.180001C15.1415 0.229526 12.678 0.700973 10.3457 1.57429C8.34499 2.32809 6.53285 3.50938 5.03571 5.03571C3.508 6.53339 2.32571 8.34657 1.57143 10.3486C0.698115 12.6809 0.226669 15.1443 0.177144 17.6343C0.0342869 20.8314 1.17256e-06 21.8571 1.6094e-06 30C2.04624e-06 38.1428 0.0342877 39.1686 0.180002 42.3686C0.229528 44.8585 0.700975 47.322 1.57429 49.6543C2.32773 51.656 3.50903 53.4692 5.03572 54.9671C6.53368 56.4938 8.34683 57.6751 10.3486 58.4286C12.6809 59.3019 15.1444 59.7733 17.6343 59.8228C20.8343 59.9657 21.8557 60.0028 30.0029 60.0028C38.15 60.0028 39.1714 59.9686 42.3714 59.8228C44.8614 59.7733 47.3249 59.3019 49.6571 58.4286C51.6494 57.6563 53.4586 56.4768 54.9689 54.9654C56.4793 53.4541 57.6576 51.6442 58.4286 49.6514C59.3019 47.3191 59.7733 44.8556 59.8229 42.3657C59.9657 39.1686 60 38.1428 60 30C60 21.8571 59.9657 20.8314 59.82 17.6314C59.7705 15.1415 59.299 12.678 58.4257 10.3457C57.6723 8.34397 56.491 6.53082 54.9643 5.03286C53.4663 3.50618 51.6532 2.32487 49.6514 1.57143C47.3191 0.698117 44.8556 0.226671 42.3657 0.177145C39.1686 0.0342879 38.1429 2.04624e-06 30 1.6094e-06Z" fill="#CAA149"/>
<path d="M29.9995 14.5908C26.9525 14.5908 23.974 15.4944 21.4405 17.1872C18.9071 18.88 16.9325 21.286 15.7664 24.101C14.6004 26.916 14.2953 30.0136 14.8898 33.002C15.4842 35.9904 16.9515 38.7355 19.106 40.89C21.2605 43.0445 24.0056 44.5118 26.994 45.1062C29.9824 45.7007 33.08 45.3956 35.895 44.2296C38.71 43.0635 41.116 41.0889 42.8089 38.5555C44.5017 36.022 45.4052 33.0435 45.4052 29.9965C45.4052 25.9107 43.7821 21.9922 40.893 19.1031C38.0038 16.2139 34.0853 14.5908 29.9995 14.5908ZM29.9995 39.9965C28.0217 39.9965 26.0883 39.41 24.4438 38.3112C22.7993 37.2124 21.5176 35.6506 20.7607 33.8234C20.0038 31.9961 19.8058 29.9854 20.1916 28.0456C20.5775 26.1058 21.5299 24.324 22.9284 22.9255C24.3269 21.5269 26.1088 20.5745 28.0486 20.1887C29.9884 19.8028 31.999 20.0009 33.8263 20.7577C35.6536 21.5146 37.2153 22.7963 38.3142 24.4408C39.413 26.0853 39.9995 28.0187 39.9995 29.9965C39.9995 32.6487 38.9459 35.1922 37.0705 37.0676C35.1952 38.943 32.6516 39.9965 29.9995 39.9965Z" fill="#CAA149"/>
<path d="M46.0128 17.5867C48.0011 17.5867 49.6128 15.9749 49.6128 13.9867C49.6128 11.9985 48.0011 10.3867 46.0128 10.3867C44.0246 10.3867 42.4128 11.9985 42.4128 13.9867C42.4128 15.9749 44.0246 17.5867 46.0128 17.5867Z" fill="#CAA149"/>
</svg>
