<svg width="50" height="50" viewBox="0 0 82 82" fill="none" xmlns="http://www.w3.org/2000/svg">
<path d="M47.4794 43.9387C45.7785 42.2378 45.7785 39.48 47.4794 37.7791L72.2337 13.0248C73.9346 11.3239 76.6923 11.3239 78.3932 13.0248C80.0941 14.7257 80.0941 17.4835 78.3932 19.1844L53.639 43.9387C51.9381 45.6396 49.1803 45.6396 47.4794 43.9387Z" fill="white"/>
<path d="M47.4794 43.9387C45.7785 42.2378 45.7785 39.48 47.4794 37.7791L72.2337 13.0248C73.9346 11.3239 76.6923 11.3239 78.3932 13.0248C80.0941 14.7257 80.0941 17.4835 78.3932 19.1844L53.639 43.9387C51.9381 45.6396 49.1803 45.6396 47.4794 43.9387Z" fill="white"/>
<path d="M47.4794 43.9387C45.7785 42.2378 45.7785 39.48 47.4794 37.7791L72.2337 13.0248C73.9346 11.3239 76.6923 11.3239 78.3932 13.0248C80.0941 14.7257 80.0941 17.4835 78.3932 19.1844L53.639 43.9387C51.9381 45.6396 49.1803 45.6396 47.4794 43.9387Z" fill="white"/>
<path d="M47.6221 37.798C49.323 36.0971 52.0808 36.0971 53.7817 37.798L67.1202 51.1366C68.8211 52.8375 68.8211 55.5952 67.1202 57.2961C65.4193 58.997 62.6615 58.997 60.9606 57.2961L47.6221 43.9576C45.9212 42.2567 45.9212 39.499 47.6221 37.798Z" fill="white"/>
<path d="M47.6221 37.798C49.323 36.0971 52.0808 36.0971 53.7817 37.798L67.1202 51.1366C68.8211 52.8375 68.8211 55.5952 67.1202 57.2961C65.4193 58.997 62.6615 58.997 60.9606 57.2961L47.6221 43.9576C45.9212 42.2567 45.9212 39.499 47.6221 37.798Z" fill="white"/>
<path d="M47.6221 37.798C49.323 36.0971 52.0808 36.0971 53.7817 37.798L67.1202 51.1366C68.8211 52.8375 68.8211 55.5952 67.1202 57.2961C65.4193 58.997 62.6615 58.997 60.9606 57.2961L47.6221 43.9576C45.9212 42.2567 45.9212 39.499 47.6221 37.798Z" fill="white"/>
<path d="M37.8007 48.006C39.5016 46.3051 42.2594 46.3051 43.9603 48.006L68.7145 72.7603C70.4154 74.4612 70.4154 77.219 68.7145 78.9199C67.0136 80.6208 64.2559 80.6208 62.555 78.9199L37.8007 54.1656C36.0998 52.4647 36.0998 49.707 37.8007 48.006Z" fill="white"/>
<path d="M37.8007 48.006C39.5016 46.3051 42.2594 46.3051 43.9603 48.006L68.7145 72.7603C70.4154 74.4612 70.4154 77.219 68.7145 78.9199C67.0136 80.6208 64.2559 80.6208 62.555 78.9199L37.8007 54.1656C36.0998 52.4647 36.0998 49.707 37.8007 48.006Z" fill="white"/>
<path d="M37.8007 48.006C39.5016 46.3051 42.2594 46.3051 43.9603 48.006L68.7145 72.7603C70.4154 74.4612 70.4154 77.219 68.7145 78.9199C67.0136 80.6208 64.2559 80.6208 62.555 78.9199L37.8007 54.1656C36.0998 52.4647 36.0998 49.707 37.8007 48.006Z" fill="white"/>
<path d="M43.9411 48.1487C45.642 49.8497 45.642 52.6074 43.9411 54.3083L30.6026 67.6468C28.9017 69.3477 26.144 69.3477 24.4431 67.6468C22.7421 65.9459 22.7421 63.1882 24.443 61.4873L37.7815 48.1487C39.4825 46.4478 42.2402 46.4478 43.9411 48.1487Z" fill="white"/>
<path d="M43.9411 48.1487C45.642 49.8497 45.642 52.6074 43.9411 54.3083L30.6026 67.6468C28.9017 69.3477 26.144 69.3477 24.4431 67.6468C22.7421 65.9459 22.7421 63.1882 24.443 61.4873L37.7815 48.1487C39.4825 46.4478 42.2402 46.4478 43.9411 48.1487Z" fill="white"/>
<path d="M43.9411 48.1487C45.642 49.8497 45.642 52.6074 43.9411 54.3083L30.6026 67.6468C28.9017 69.3477 26.144 69.3477 24.4431 67.6468C22.7421 65.9459 22.7421 63.1882 24.443 61.4873L37.7815 48.1487C39.4825 46.4478 42.2402 46.4478 43.9411 48.1487Z" fill="white"/>
<path d="M33.9936 37.4144C35.6945 39.1153 35.6945 41.873 33.9936 43.5739L9.23935 68.3282C7.53844 70.0291 4.78071 70.0291 3.0798 68.3282C1.37889 66.6273 1.37889 63.8696 3.0798 62.1686L27.834 37.4144C29.535 35.7134 32.2927 35.7134 33.9936 37.4144Z" fill="white"/>
<path d="M33.9936 37.4144C35.6945 39.1153 35.6945 41.873 33.9936 43.5739L9.23935 68.3282C7.53844 70.0291 4.78071 70.0291 3.0798 68.3282C1.37889 66.6273 1.37889 63.8696 3.0798 62.1686L27.834 37.4144C29.535 35.7134 32.2927 35.7134 33.9936 37.4144Z" fill="white"/>
<path d="M33.9936 37.4144C35.6945 39.1153 35.6945 41.873 33.9936 43.5739L9.23935 68.3282C7.53844 70.0291 4.78071 70.0291 3.0798 68.3282C1.37889 66.6273 1.37889 63.8696 3.0798 62.1686L27.834 37.4144C29.535 35.7134 32.2927 35.7134 33.9936 37.4144Z" fill="white"/>
<path d="M33.851 43.555C32.1501 45.2559 29.3924 45.2559 27.6915 43.555L14.353 30.2165C12.6521 28.5156 12.6521 25.7578 14.353 24.0569C16.0539 22.356 18.8116 22.356 20.5125 24.0569L33.851 37.3954C35.5519 39.0963 35.5519 41.8541 33.851 43.555Z" fill="white"/>
<path d="M33.851 43.555C32.1501 45.2559 29.3924 45.2559 27.6915 43.555L14.353 30.2165C12.6521 28.5156 12.6521 25.7578 14.353 24.0569C16.0539 22.356 18.8116 22.356 20.5125 24.0569L33.851 37.3954C35.5519 39.0963 35.5519 41.8541 33.851 43.555Z" fill="white"/>
<path d="M33.851 43.555C32.1501 45.2559 29.3924 45.2559 27.6915 43.555L14.353 30.2165C12.6521 28.5156 12.6521 25.7578 14.353 24.0569C16.0539 22.356 18.8116 22.356 20.5125 24.0569L33.851 37.3954C35.5519 39.0963 35.5519 41.8541 33.851 43.555Z" fill="white"/>
<path d="M43.9669 33.9935C42.2659 35.6944 39.5082 35.6944 37.8073 33.9935L13.0531 9.23918C11.3522 7.53827 11.3522 4.78054 13.0531 3.07962C14.754 1.37871 17.5117 1.3787 19.2126 3.07962L43.9669 27.8339C45.6678 29.5348 45.6678 32.2925 43.9669 33.9935Z" fill="white"/>
<path d="M43.9669 33.9935C42.2659 35.6944 39.5082 35.6944 37.8073 33.9935L13.0531 9.23918C11.3522 7.53827 11.3522 4.78054 13.0531 3.07962C14.754 1.37871 17.5117 1.3787 19.2126 3.07962L43.9669 27.8339C45.6678 29.5348 45.6678 32.2925 43.9669 33.9935Z" fill="white"/>
<path d="M43.9669 33.9935C42.2659 35.6944 39.5082 35.6944 37.8073 33.9935L13.0531 9.23918C11.3522 7.53827 11.3522 4.78054 13.0531 3.07962C14.754 1.37871 17.5117 1.3787 19.2126 3.07962L43.9669 27.8339C45.6678 29.5348 45.6678 32.2925 43.9669 33.9935Z" fill="white"/>
<path d="M37.8265 33.8508C36.1256 32.1499 36.1256 29.3921 37.8265 27.6912L51.165 14.3527C52.8659 12.6518 55.6236 12.6518 57.3245 14.3527C59.0254 16.0536 59.0254 18.8113 57.3245 20.5123L43.986 33.8508C42.2851 35.5517 39.5274 35.5517 37.8265 33.8508Z" fill="white"/>
<path d="M37.8265 33.8508C36.1256 32.1499 36.1256 29.3921 37.8265 27.6912L51.165 14.3527C52.8659 12.6518 55.6236 12.6518 57.3245 14.3527C59.0254 16.0536 59.0254 18.8113 57.3245 20.5123L43.986 33.8508C42.2851 35.5517 39.5274 35.5517 37.8265 33.8508Z" fill="white"/>
<path d="M37.8265 33.8508C36.1256 32.1499 36.1256 29.3921 37.8265 27.6912L51.165 14.3527C52.8659 12.6518 55.6236 12.6518 57.3245 14.3527C59.0254 16.0536 59.0254 18.8113 57.3245 20.5123L43.986 33.8508C42.2851 35.5517 39.5274 35.5517 37.8265 33.8508Z" fill="white"/>
</svg>