<svg width="654" height="653" viewBox="0 0 654 653" fill="none" xmlns="http://www.w3.org/2000/svg">
<path d="M41.6 652.95C33.4933 652.95 25.7033 651.81 18.23 649.53C10.8833 647.123 5.12 644.147 0.94 640.6L7.02 629.96C11.2 633.253 16.4567 635.977 22.79 638.13C29.1233 640.157 35.71 641.17 42.55 641.17C51.67 641.17 58.3833 639.777 62.69 636.99C67.1233 634.077 69.34 630.023 69.34 624.83C69.34 621.157 68.1367 618.307 65.73 616.28C63.3233 614.127 60.2833 612.543 56.61 611.53C52.9367 610.39 48.06 609.313 41.98 608.3C33.8733 606.78 27.35 605.26 22.41 603.74C17.47 602.093 13.2267 599.37 9.68 595.57C6.26 591.77 4.55 586.513 4.55 579.8C4.55 571.44 8.03333 564.6 15 559.28C21.9667 553.96 31.6567 551.3 44.07 551.3C50.53 551.3 56.99 552.187 63.45 553.96C69.91 555.607 75.23 557.823 79.41 560.61L73.52 571.44C65.2867 565.74 55.47 562.89 44.07 562.89C35.4567 562.89 28.9333 564.41 24.5 567.45C20.1933 570.49 18.04 574.48 18.04 579.42C18.04 583.22 19.2433 586.26 21.65 588.54C24.1833 590.82 27.2867 592.53 30.96 593.67C34.6333 594.683 39.7 595.76 46.16 596.9C54.14 598.42 60.5367 599.94 65.35 601.46C70.1633 602.98 74.28 605.577 77.7 609.25C81.12 612.923 82.83 617.99 82.83 624.45C82.83 633.19 79.1567 640.157 71.81 645.35C64.59 650.417 54.52 652.95 41.6 652.95ZM198.969 552.06V652H186.049V632.24C181.996 638.953 176.612 644.083 169.899 647.63C163.312 651.177 155.839 652.95 147.479 652.95C138.106 652.95 129.619 650.797 122.019 646.49C114.419 642.183 108.466 636.167 104.159 628.44C99.8523 620.713 97.699 611.91 97.699 602.03C97.699 592.15 99.8523 583.347 104.159 575.62C108.466 567.893 114.419 561.94 122.019 557.76C129.619 553.453 138.106 551.3 147.479 551.3C155.586 551.3 162.869 553.01 169.329 556.43C175.916 559.723 181.299 564.6 185.479 571.06V552.06H198.969ZM148.619 640.98C155.586 640.98 161.856 639.397 167.429 636.23C173.129 632.937 177.562 628.313 180.729 622.36C184.022 616.407 185.669 609.63 185.669 602.03C185.669 594.43 184.022 587.653 180.729 581.7C177.562 575.747 173.129 571.187 167.429 568.02C161.856 564.727 155.586 563.08 148.619 563.08C141.526 563.08 135.129 564.727 129.429 568.02C123.856 571.187 119.422 575.747 116.129 581.7C112.962 587.653 111.379 594.43 111.379 602.03C111.379 609.63 112.962 616.407 116.129 622.36C119.422 628.313 123.856 632.937 129.429 636.23C135.129 639.397 141.526 640.98 148.619 640.98ZM264.659 652.95C255.665 652.95 248.699 650.417 243.759 645.35C238.945 640.283 236.539 633.253 236.539 624.26V511.02H250.029V623.12C250.029 629.073 251.422 633.633 254.209 636.8C256.995 639.84 261.175 641.36 266.749 641.36C270.295 641.36 273.335 640.79 275.869 639.65L276.819 650.86C272.892 652.253 268.839 652.95 264.659 652.95ZM336.066 640.98C342.273 640.98 347.973 639.903 353.166 637.75C358.486 635.47 362.983 632.177 366.656 627.87L374.256 636.61C369.823 641.93 364.313 645.983 357.726 648.77C351.139 651.557 343.856 652.95 335.876 652.95C325.616 652.95 316.496 650.797 308.516 646.49C300.536 642.057 294.329 635.977 289.896 628.25C285.463 620.523 283.246 611.783 283.246 602.03C283.246 592.277 285.336 583.537 289.516 575.81C293.823 568.083 299.713 562.067 307.186 557.76C314.659 553.453 323.146 551.3 332.646 551.3C341.513 551.3 349.493 553.327 356.586 557.38C363.806 561.433 369.506 567.07 373.686 574.29C377.993 581.51 380.273 589.743 380.526 598.99L298.446 614.95C300.979 623.057 305.539 629.453 312.126 634.14C318.839 638.7 326.819 640.98 336.066 640.98ZM332.646 562.89C325.679 562.89 319.409 564.537 313.836 567.83C308.389 570.997 304.083 575.493 300.916 581.32C297.876 587.02 296.356 593.607 296.356 601.08C296.356 602.98 296.419 604.373 296.546 605.26L367.036 591.58C365.516 583.22 361.653 576.38 355.446 571.06C349.239 565.613 341.639 562.89 332.646 562.89ZM434.774 652.95C426.667 652.95 418.877 651.81 411.404 649.53C404.057 647.123 398.294 644.147 394.114 640.6L400.194 629.96C404.374 633.253 409.63 635.977 415.964 638.13C422.297 640.157 428.884 641.17 435.724 641.17C444.844 641.17 451.557 639.777 455.864 636.99C460.297 634.077 462.514 630.023 462.514 624.83C462.514 621.157 461.31 618.307 458.904 616.28C456.497 614.127 453.457 612.543 449.784 611.53C446.11 610.39 441.234 609.313 435.154 608.3C427.047 606.78 420.524 605.26 415.584 603.74C410.644 602.093 406.4 599.37 402.854 595.57C399.434 591.77 397.724 586.513 397.724 579.8C397.724 571.44 401.207 564.6 408.174 559.28C415.14 553.96 424.83 551.3 437.244 551.3C443.704 551.3 450.164 552.187 456.624 553.96C463.084 555.607 468.404 557.823 472.584 560.61L466.694 571.44C458.46 565.74 448.644 562.89 437.244 562.89C428.63 562.89 422.107 564.41 417.674 567.45C413.367 570.49 411.214 574.48 411.214 579.42C411.214 583.22 412.417 586.26 414.824 588.54C417.357 590.82 420.46 592.53 424.134 593.67C427.807 594.683 432.874 595.76 439.334 596.9C447.314 598.42 453.71 599.94 458.524 601.46C463.337 602.98 467.454 605.577 470.874 609.25C474.294 612.923 476.004 617.99 476.004 624.45C476.004 633.19 472.33 640.157 464.984 645.35C457.764 650.417 447.694 652.95 434.774 652.95ZM636.929 652L593.989 593.48L551.239 652H535.089L585.629 583.6L538.319 519H554.469L594.559 573.34L634.459 519H649.659L602.539 583.22L653.269 652H636.929Z" fill="#292929"/>
<path d="M346.14 277.754C335.387 267.002 335.387 249.569 346.14 238.817L502.623 82.3338C513.375 71.5815 530.808 71.5815 541.56 82.3338V82.3338C552.312 93.0861 552.312 110.519 541.56 121.271L385.077 277.754C374.325 288.506 356.892 288.506 346.14 277.754V277.754Z" fill="#292929"/>
<path d="M347.041 238.938C357.793 228.185 375.226 228.185 385.978 238.938L470.297 323.256C481.05 334.009 481.05 351.442 470.297 362.194V362.194C459.545 372.946 442.112 372.946 431.36 362.194L347.041 277.875C336.289 267.123 336.289 249.69 347.041 238.938V238.938Z" fill="#292929"/>
<path d="M284.955 303.468C295.707 292.716 313.14 292.716 323.893 303.468L480.376 459.951C491.128 470.703 491.128 488.136 480.376 498.889V498.889C469.623 509.641 452.19 509.641 441.438 498.889L284.955 342.406C274.203 331.653 274.203 314.22 284.955 303.468V303.468Z" fill="#292929"/>
<path d="M323.772 304.37C334.524 315.122 334.524 332.555 323.772 343.307L239.453 427.626C228.7 438.378 211.268 438.378 200.515 427.626V427.626C189.763 416.874 189.763 399.441 200.515 388.689L284.834 304.37C295.586 293.617 313.019 293.617 323.772 304.37V304.37Z" fill="#292929"/>
<path d="M260.889 236.513C271.641 247.265 271.641 264.698 260.889 275.45L104.406 431.933C93.6534 442.685 76.2206 442.685 65.4683 431.933V431.933C54.716 421.181 54.7161 403.748 65.4683 392.996L221.951 236.513C232.704 225.76 250.136 225.76 260.889 236.513V236.513Z" fill="#292929"/>
<path d="M259.987 275.329C249.235 286.081 231.802 286.081 221.05 275.329L136.731 191.01C125.979 180.258 125.979 162.825 136.731 152.073V152.073C147.483 141.321 164.916 141.321 175.668 152.073L259.987 236.392C270.739 247.144 270.74 264.577 259.987 275.329V275.329Z" fill="#292929"/>
<path d="M323.936 214.889C313.184 225.641 295.751 225.641 284.999 214.889L128.516 58.4061C117.764 47.6538 117.764 30.2209 128.516 19.4687V19.4687C139.268 8.71641 156.701 8.71642 167.453 19.4687L323.936 175.952C334.689 186.704 334.689 204.137 323.936 214.889V214.889Z" fill="#292929"/>
<path d="M285.12 213.988C274.368 203.235 274.368 185.802 285.12 175.05L369.439 90.7314C380.191 79.9791 397.624 79.9791 408.376 90.7314V90.7314C419.129 101.484 419.129 118.917 408.376 129.669L324.057 213.988C313.305 224.74 295.872 224.74 285.12 213.988V213.988Z" fill="#292929"/>
</svg>
