<svg width="60" height="60" viewBox="0 0 60 60" fill="none" xmlns="http://www.w3.org/2000/svg">
<g clip-path="url(#clip0_18_29)">
<path d="M13.7026 4.98013C13.4812 4.69536 13.2017 4.46095 12.8828 4.29247C12.5639 4.124 12.2128 4.02531 11.8528 4.00296C11.4927 3.98062 11.1321 4.03513 10.7948 4.16287C10.4575 4.29062 10.1512 4.48867 9.89631 4.74388L6.01881 8.62513C4.20756 10.4401 3.54006 13.0089 4.33131 15.2626C7.61904 24.5893 12.9606 33.0579 19.9613 40.0426C26.946 47.0433 35.4146 52.3849 44.7413 55.6726C46.9951 56.4639 49.5638 55.7964 51.3788 53.9851L55.2563 50.1076C55.5115 49.8527 55.7096 49.5465 55.8373 49.2091C55.9651 48.8718 56.0196 48.5112 55.9972 48.1512C55.9749 47.7912 55.8762 47.4401 55.7077 47.1211C55.5392 46.8022 55.3048 46.5228 55.0201 46.3014L46.3688 39.5739C46.0643 39.3384 45.7105 39.1749 45.3338 39.0957C44.9571 39.0165 44.5674 39.0235 44.1938 39.1164L35.9813 41.1676C34.885 41.4397 33.737 41.4243 32.6485 41.1227C31.5599 40.8212 30.5676 40.2438 29.7676 39.4464L20.5576 30.2326C19.7595 29.433 19.1814 28.4408 18.8792 27.3523C18.577 26.2637 18.5609 25.1155 18.8326 24.0189L20.8876 15.8064C20.9804 15.4328 20.9875 15.0431 20.9082 14.6664C20.829 14.2897 20.6655 13.9359 20.4301 13.6314L13.7026 4.98013ZM7.06506 1.91638C7.72129 1.25994 8.50966 0.750619 9.37783 0.422234C10.246 0.09385 11.1741 -0.0460825 12.1005 0.0117286C13.0269 0.0695396 13.9304 0.323771 14.751 0.757542C15.5716 1.19131 16.2905 1.7947 16.8601 2.52763L23.5876 11.1751C24.8213 12.7614 25.2563 14.8276 24.7688 16.7776L22.7176 24.9901C22.6122 25.4155 22.6183 25.8609 22.7353 26.2832C22.8522 26.7056 23.076 27.0907 23.3851 27.4014L32.5988 36.6151C32.9099 36.9248 33.2956 37.149 33.7187 37.2659C34.1418 37.3829 34.5879 37.3886 35.0138 37.2826L43.2226 35.2314C44.185 34.9922 45.1891 34.9742 46.1594 35.1788C47.1298 35.3834 48.0412 35.8052 48.8251 36.4126L57.4726 43.1401C60.5813 45.5589 60.8663 50.1526 58.0838 52.9314L54.2063 56.8089C51.4313 59.5839 47.2838 60.8026 43.4176 59.4414C33.5201 55.9636 24.5346 50.298 17.1301 42.8664C9.69895 35.4629 4.03338 26.4788 0.555057 16.5826C-0.802443 12.7201 0.416307 8.56888 3.19131 5.79388L7.06506 1.91638Z" fill="#CAA149"/>
</g>
<defs>
<clipPath id="clip0_18_29">
<rect width="60" height="60" fill="white"/>
</clipPath>
</defs>
</svg>
