<svg width="881" height="665" viewBox="0 0 881 665" fill="none" xmlns="http://www.w3.org/2000/svg">
<g clip-path="url(#clip0_42_67)">
<path d="M12.0059 654.075C12.0099 654.298 12.058 654.519 12.1473 654.724C12.2367 654.929 12.3656 655.114 12.5267 655.269C12.6877 655.424 12.8778 655.546 13.086 655.627C13.2942 655.709 13.5164 655.748 13.7399 655.744H878.447C878.672 655.753 878.897 655.717 879.107 655.638C879.318 655.558 879.511 655.437 879.673 655.281C879.836 655.125 879.965 654.938 880.054 654.731C880.142 654.523 880.188 654.301 880.188 654.075C880.188 653.85 880.142 653.627 880.054 653.42C879.965 653.213 879.836 653.026 879.673 652.87C879.511 652.714 879.318 652.592 879.107 652.513C878.897 652.433 878.672 652.397 878.447 652.407H13.7399C13.5164 652.402 13.2943 652.442 13.0862 652.523C12.8781 652.605 12.6881 652.726 12.527 652.881C12.366 653.036 12.237 653.221 12.1476 653.426C12.0582 653.631 12.01 653.851 12.0059 654.075Z" fill="#CCCCCC"/>
<path d="M452.65 489.409C451.522 496.236 448.006 502.441 442.728 506.918C437.451 511.394 430.756 513.851 423.836 513.851C416.916 513.851 410.221 511.394 404.944 506.918C399.667 502.441 396.151 496.236 395.022 489.409H321.304V649.164H526.367V489.409H452.65Z" fill="#D6D6E3"/>
<path d="M345.15 648.572H324.882V652.149H345.15V648.572Z" fill="#B6B3C5"/>
<path d="M524.579 649.167H504.311V652.744H524.579V649.167Z" fill="#B6B3C5"/>
<path d="M526.966 636.511H321.902V642.072H526.966V636.511Z" fill="#090814"/>
<path d="M836.241 493.582H11.432C8.4011 493.579 5.49533 492.373 3.35216 490.23C1.20899 488.087 0.00344075 485.181 0 482.15L0 11.433C0.00317611 8.40193 1.2086 5.4959 3.3518 3.35251C5.495 1.20912 8.40093 0.00344123 11.432 0H836.241C839.272 0.00344075 842.178 1.20899 844.321 3.35216C846.464 5.49533 847.67 8.4011 847.673 11.432V482.15C847.669 485.181 846.464 488.086 844.321 490.23C842.177 492.373 839.272 493.578 836.241 493.582Z" fill="#090814"/>
<path d="M827.404 19.0762H20.2661V474.507H827.404V19.0762Z" fill="white"/>
<path d="M424.593 245.847L338.051 181.026L252.692 244.961L250.737 242.355L338.051 176.955L424.182 241.468L509.771 147.804L510.115 147.664L596.452 112.879L597.67 115.901L511.677 150.548L424.593 245.847Z" fill="#D6D6E3"/>
<path d="M684.694 365.832H164.173C163.741 365.832 163.327 365.661 163.021 365.355C162.716 365.05 162.544 364.635 162.544 364.203V114.718C162.544 114.286 162.716 113.872 163.021 113.566C163.327 113.261 163.741 113.089 164.173 113.089C164.605 113.089 165.019 113.261 165.325 113.566C165.63 113.872 165.802 114.286 165.802 114.718V362.574H684.694C685.126 362.574 685.54 362.746 685.846 363.052C686.151 363.357 686.323 363.771 686.323 364.203C686.323 364.635 686.151 365.05 685.846 365.355C685.54 365.661 685.126 365.832 684.694 365.832Z" fill="#3F3D56"/>
<path d="M275.387 347.913H228.043C226.761 347.912 225.532 347.402 224.625 346.495C223.719 345.589 223.209 344.36 223.207 343.078V277.814C223.209 276.532 223.719 275.303 224.625 274.397C225.532 273.49 226.761 272.98 228.043 272.979H275.386C276.668 272.98 277.897 273.49 278.804 274.397C279.71 275.303 280.22 276.532 280.222 277.814V343.079C280.22 344.361 279.71 345.589 278.804 346.495C277.897 347.402 276.669 347.911 275.387 347.913Z" fill="#D49D36"/>
<path d="M361.724 347.912H314.38C313.098 347.911 311.869 347.401 310.962 346.495C310.056 345.588 309.546 344.359 309.544 343.077V215.912C309.546 214.63 310.056 213.401 310.962 212.495C311.869 211.588 313.098 211.078 314.38 211.077H361.723C363.005 211.078 364.234 211.588 365.141 212.495C366.047 213.401 366.557 214.63 366.559 215.912V343.077C366.557 344.359 366.047 345.588 365.141 346.495C364.234 347.401 363.005 347.911 361.723 347.912H361.724Z" fill="#D49D36"/>
<path d="M448.06 347.913H400.716C399.434 347.912 398.205 347.402 397.298 346.495C396.392 345.589 395.881 344.36 395.88 343.078V277.814C395.881 276.532 396.392 275.303 397.298 274.397C398.205 273.49 399.434 272.98 400.716 272.979H448.059C449.341 272.98 450.57 273.49 451.477 274.397C452.383 275.303 452.893 276.532 452.895 277.814V343.079C452.893 344.361 452.383 345.589 451.477 346.495C450.57 347.402 449.342 347.911 448.06 347.913Z" fill="#D49D36"/>
<path d="M534.396 347.913H487.052C485.799 347.94 484.586 347.47 483.68 346.605C482.774 345.739 482.247 344.55 482.216 343.297V191.259C482.247 190.006 482.773 188.817 483.68 187.951C484.586 187.086 485.799 186.615 487.052 186.642H534.395C535.648 186.615 536.86 187.086 537.767 187.951C538.673 188.816 539.2 190.005 539.231 191.258V343.296C539.2 344.549 538.674 345.738 537.767 346.604C536.861 347.469 535.649 347.94 534.396 347.913Z" fill="#D49D36"/>
<path d="M620.733 347.913H573.389C572.107 347.912 570.878 347.402 569.971 346.496C569.064 345.589 568.554 344.36 568.553 343.078V147.495C568.554 146.213 569.064 144.984 569.971 144.078C570.878 143.171 572.107 142.661 573.389 142.66H620.732C622.014 142.661 623.243 143.171 624.149 144.078C625.056 144.984 625.566 146.213 625.568 147.495V343.078C625.566 344.36 625.056 345.589 624.149 346.496C623.243 347.402 622.015 347.912 620.733 347.913Z" fill="#D49D36"/>
<path d="M251.51 252.964C257.037 252.964 261.517 248.764 261.517 243.583C261.517 238.402 257.037 234.202 251.51 234.202C245.983 234.202 241.503 238.402 241.503 243.583C241.503 248.764 245.983 252.964 251.51 252.964Z" fill="#3F3D56"/>
<path d="M337.817 190.424C343.344 190.424 347.824 185.944 347.824 180.417C347.824 174.89 343.344 170.41 337.817 170.41C332.29 170.41 327.81 174.89 327.81 180.417C327.81 185.944 332.29 190.424 337.817 190.424Z" fill="#3F3D56"/>
<path d="M424.124 252.964C429.651 252.964 434.131 248.764 434.131 243.583C434.131 238.402 429.651 234.202 424.124 234.202C418.597 234.202 414.117 238.402 414.117 243.583C414.117 248.764 418.597 252.964 424.124 252.964Z" fill="#3F3D56"/>
<path d="M510.431 159.153C515.958 159.153 520.438 154.673 520.438 149.146C520.438 143.619 515.958 139.139 510.431 139.139C504.904 139.139 500.424 143.619 500.424 149.146C500.424 154.673 504.904 159.153 510.431 159.153Z" fill="#3F3D56"/>
<path d="M596.738 124.134C602.265 124.134 606.745 119.653 606.745 114.125C606.745 108.597 602.265 104.116 596.738 104.116C591.211 104.116 586.731 108.597 586.731 114.125C586.731 119.653 591.211 124.134 596.738 124.134Z" fill="#3F3D56"/>
<path d="M684.581 287.825C684.581 287.825 669.759 285.269 647.781 265.336C630.392 249.57 606.937 252.67 597.893 254.658C597.585 254.724 597.304 254.884 597.089 255.114C596.874 255.345 596.734 255.636 596.689 255.948C596.645 256.261 596.697 256.579 596.838 256.861C596.98 257.143 597.205 257.375 597.482 257.525C601.137 259.525 606.804 262.447 609.46 262.78C609.46 262.78 603.982 268.447 609.804 271.48C610.501 271.822 611.28 271.964 612.053 271.89C612.826 271.815 613.563 271.527 614.182 271.058C616.982 269.014 624.76 273.658 636.037 276.069C636.037 276.069 679.992 321.557 690.214 313.846L684.581 287.825Z" fill="#FFB9B9"/>
<path d="M760.258 225.982C760.258 225.982 764.347 243.359 760.258 255.626L778.658 258.181L795.013 250.003V239.271C795.013 239.271 787.346 222.916 789.391 204.005L760.258 225.982Z" fill="#FFB9B9"/>
<path d="M812.357 602.643C812.357 602.643 825.69 628.709 823.601 646.087C821.512 663.465 840.978 648.131 838.934 637.909C838.501 650.283 844.656 594.576 847.534 581.532C847.846 580.123 847.624 578.647 846.909 577.393C846.195 576.138 845.04 575.194 843.668 574.743C837.523 572.721 827.235 570.243 822.068 574.032C814.435 579.643 812.357 602.643 812.357 602.643Z" fill="#090814"/>
<path d="M761.792 631.264C761.792 631.264 744.414 653.752 739.815 654.264C735.216 654.776 732.148 661.931 739.815 663.464C755.123 666.128 770.866 664.593 785.37 659.02C786.822 658.454 788.041 657.417 788.833 656.075C789.625 654.733 789.943 653.164 789.737 651.62L786.804 629.731L761.792 631.264Z" fill="#090814"/>
<path d="M733.169 392.59L716.502 394.81C718.79 414.276 718.722 433.947 716.302 453.398V523.398C716.302 523.398 715.98 529.565 728.78 538.531C742.202 547.862 755.138 557.875 767.535 568.531L813.912 608.71C813.912 608.71 832.312 586.221 829.756 572.933C829.756 572.933 799.09 563.222 795.001 547.378C792.657 538.311 780.768 530.712 771.035 525.934C764.916 522.963 759.998 517.987 757.097 511.834C754.196 505.681 753.488 498.721 755.09 492.11C755.658 489.813 756.537 487.603 757.701 485.543C765.879 471.232 777.634 439.033 777.634 439.033L755.146 396.167L733.169 392.59Z" fill="#090814"/>
<path d="M757.704 632.83C757.704 632.83 787.859 637.941 788.881 641.008C789.903 644.075 788.881 636.919 788.881 636.919C788.881 636.919 806.263 584.277 802.214 537.777C798.165 491.277 807.325 460.6 807.325 460.6C807.325 460.6 818.058 425.845 811.925 405.912C805.792 385.979 741.393 394.668 741.393 394.668C741.393 394.668 763.882 447.312 763.371 472.356C763.371 472.356 765.926 547.999 770.526 556.688C770.481 556.644 763.326 630.754 757.704 632.83Z" fill="#090814"/>
<path d="M761.247 239.271C761.247 239.271 764.314 258.16 794.98 250.004L774.58 405.368C774.58 405.368 715.292 407.412 715.803 400.257L728.025 306.225L761.247 239.271Z" fill="white"/>
<path d="M762.048 238.759C757.481 242.332 752.019 244.58 746.259 245.259C741.171 245.649 736.224 247.118 731.748 249.57C726.493 252.514 720.637 256.792 718.859 262.003C715.281 272.225 692.793 289.091 682.571 285.514L686.149 316.18C686.149 316.18 715.282 314.647 720.393 303.402L711.715 412.829H719.381C719.381 412.829 723.47 383.185 726.536 377.052C729.602 370.919 735.736 337.186 736.247 329.008C736.758 320.83 744.425 273.808 751.069 265.676L762.058 241.91L762.048 238.759Z" fill="#D6D6E3"/>
<path opacity="0.1" d="M788.113 219.082C787.446 214.238 788.78 211.215 789.391 205.538L760.258 227.515C760.258 227.515 760.958 230.482 761.491 234.826C762.961 235.064 764.447 235.183 765.935 235.182C776.048 235.182 783.324 227.282 788.113 219.082Z" fill="black"/>
<path d="M765.881 233.66C781.124 233.66 793.481 221.303 793.481 206.06C793.481 190.817 781.124 178.46 765.881 178.46C750.638 178.46 738.281 190.817 738.281 206.06C738.281 221.303 750.638 233.66 765.881 233.66Z" fill="#FFB9B9"/>
<path d="M738.142 182.558C737.979 178.263 738.677 173.979 740.193 169.958C739.772 170.591 739.594 171.354 739.692 172.108C739.79 172.861 740.158 173.554 740.726 174.058C741.548 169.674 743.798 165.686 747.126 162.716C745.311 163.016 744.378 165.259 744.826 167.044C745.439 168.787 746.53 170.322 747.974 171.474C747.82 168.774 749.605 166.254 751.861 164.774C754.212 163.424 756.78 162.494 759.45 162.026C758.535 162.351 757.753 162.97 757.226 163.786C756.699 164.602 756.457 165.57 756.537 166.538C756.545 166.867 756.681 167.18 756.916 167.41C757.173 167.574 757.474 167.653 757.778 167.636C760.435 167.738 763.096 167.68 765.746 167.462C769.005 167.095 772.282 166.921 775.56 166.939C785.815 167.37 796.122 174.374 798.419 184.373C798.896 186.799 799.146 189.264 799.168 191.736L799.668 204.36C799.96 208.043 799.809 211.747 799.217 215.394C798.507 218.761 797.062 221.929 794.987 224.673C792.911 227.417 790.255 229.669 787.208 231.269C783.508 225.906 783.178 219.014 781.896 212.625C781.694 211.151 781.145 209.746 780.296 208.525C779.858 207.921 779.242 207.468 778.535 207.229C777.827 206.99 777.063 206.977 776.348 207.192C774.963 207.746 774.369 209.858 775.517 210.802C774.491 212.012 772.574 211.11 771.417 210.033C768.181 206.963 765.953 202.983 765.028 198.619C764.567 196.424 764.105 193.719 761.951 192.968C761.211 192.764 760.437 192.712 759.675 192.814C755.183 193.122 748.158 194.978 743.81 193.552C739.821 192.24 738.142 186.343 738.142 182.558Z" fill="#090814"/>
<path d="M682.36 285.525C682.36 285.525 678.271 304.414 685.938 316.191L690.282 315.835L687.915 285.835L682.36 285.525Z" fill="#D6D6E3"/>
<path d="M793.225 233.948L826.192 262.314C826.192 262.314 845.613 282.248 837.435 314.448C837.435 314.448 833.857 361.47 829.768 363.514C829.768 363.514 815.457 392.136 814.435 419.224C814.435 419.224 794.246 378.591 785.547 402.102C776.848 425.613 757.692 430.989 757.692 430.989L768.936 291.98C768.936 291.98 797.314 242.592 793.225 233.948Z" fill="#D6D6E3"/>
<path d="M808.302 353.758C808.302 353.758 816.48 348.136 829.768 363.469L797.058 422.757L786.069 406.168C786.069 406.168 809.329 360.402 808.302 353.758Z" fill="#FFB9B9"/>
<path d="M800.38 356.058C800.38 356.058 818.469 376.369 825.524 373.113L832.057 357.902L807.535 347.369L800.38 356.058Z" fill="#D6D6E3"/>
<path opacity="0.1" d="M802.936 293.703C802.936 293.703 803.958 330.503 799.869 344.303Z" fill="black"/>
<path opacity="0.1" d="M720.136 300.858C720.136 300.858 726.269 298.814 726.269 293.703Z" fill="black"/>
</g>
<defs>
<clipPath id="clip0_42_67">
<rect width="880.182" height="664.736" fill="white"/>
</clipPath>
</defs>
</svg>
